<?xml version="1.0" encoding="UTF-8" standalone="no"?>
<!-- Created with Inkscape (http://www.inkscape.org/) -->

<svg
   id="svg3407"
   version="1.1"
   inkscape:version="1.2 (dc2aedaf03, 2022-05-15)"
   width="186.98033"
   height="127.86499"
   xml:space="preserve"
   sodipodi:docname="sketch.svg"
   inkscape:export-filename="sketch.pdf"
   inkscape:export-xdpi="300"
   inkscape:export-ydpi="300"
   xmlns:inkscape="http://www.inkscape.org/namespaces/inkscape"
   xmlns:sodipodi="http://sodipodi.sourceforge.net/DTD/sodipodi-0.dtd"
   xmlns:xlink="http://www.w3.org/1999/xlink"
   xmlns="http://www.w3.org/2000/svg"
   xmlns:svg="http://www.w3.org/2000/svg"
   xmlns:rdf="http://www.w3.org/1999/02/22-rdf-syntax-ns#"
   xmlns:cc="http://creativecommons.org/ns#"
   xmlns:dc="http://purl.org/dc/elements/1.1/"
   xmlns:ns1="http://www.iki.fi/pav/software/textext/"><sodipodi:namedview
     pagecolor="#ffffff"
     bordercolor="#666666"
     borderopacity="1"
     objecttolerance="10"
     gridtolerance="10"
     guidetolerance="10"
     inkscape:pageopacity="0"
     inkscape:pageshadow="2"
     inkscape:window-width="1920"
     inkscape:window-height="1137"
     id="namedview3409"
     showgrid="false"
     inkscape:zoom="5.6568542"
     inkscape:cx="80.610174"
     inkscape:cy="74.599766"
     inkscape:window-x="1912"
     inkscape:window-y="-8"
     inkscape:window-maximized="1"
     inkscape:current-layer="g3417"
     fit-margin-top="0"
     fit-margin-left="0"
     fit-margin-right="0"
     fit-margin-bottom="0"
     inkscape:document-units="mm"
     units="mm"
     showguides="true"
     inkscape:guide-bbox="true"
     inkscape:showpageshadow="2"
     inkscape:pagecheckerboard="0"
     inkscape:deskcolor="#d1d1d1"><sodipodi:guide
       orientation="0,1"
       position="107.95157,98.594337"
       id="guide3367"
       inkscape:locked="false" /><sodipodi:guide
       orientation="1,0"
       position="107.95157,106.86389"
       id="guide3369"
       inkscape:locked="false" /><sodipodi:guide
       orientation="0,1"
       position="37.959987,86.290995"
       id="guide3173"
       inkscape:locked="false" /><inkscape:grid
       type="xygrid"
       id="grid3195"
       empspacing="5"
       visible="true"
       enabled="true"
       snapvisiblegridlinesonly="true"
       originx="20.46209"
       originy="-1.6884287e-06"
       spacingx="1"
       spacingy="1" /></sodipodi:namedview><metadata
     id="metadata3413"><rdf:RDF><cc:Work
         rdf:about=""><dc:format>image/svg+xml</dc:format><dc:type
           rdf:resource="http://purl.org/dc/dcmitype/StillImage" /></cc:Work></rdf:RDF></metadata><defs
     id="defs3411"><marker
   inkscape:stockid="Arrow2Mstart"
   orient="auto"
   refY="0"
   refX="0"
   id="Arrow2Mstart"
   style="overflow:visible"><path
     id="path4358"
     style="font-size:12px;fill-rule:evenodd;stroke-width:0.625;stroke-linejoin:round"
     d="M 8.7185878,4.0337352 -2.2072895,0.01601326 8.7185884,-4.0017078 c -1.7454984,2.3720609 -1.7354408,5.6174519 -6e-7,8.035443 z"
     transform="scale(0.6)"
     inkscape:connector-curvature="0" /></marker><inkscape:perspective
   sodipodi:type="inkscape:persp3d"
   inkscape:vp_x="0 : 0.5 : 1"
   inkscape:vp_y="0 : 1000 : 0"
   inkscape:vp_z="1 : 0.5 : 1"
   inkscape:persp3d-origin="0.5 : 0.33333333 : 1"
   id="perspective3415" /><defs
   id="defs3956">
<g
   id="g3958">
<symbol
   style="overflow:visible"
   overflow="visible"
   id="textext-1af510b9-0">
<path
   style="stroke:none"
   d=""
   id="path3961"
   inkscape:connector-curvature="0" />
</symbol>
<symbol
   style="overflow:visible"
   overflow="visible"
   id="textext-1af510b9-1">
<path
   style="stroke:none"
   d="M 3.484375,-0.5625 C 3.59375,-0.15625 3.953125,0.109375 4.375,0.109375 4.71875,0.109375 4.953125,-0.125 5.109375,-0.4375 5.28125,-0.796875 5.40625,-1.40625 5.40625,-1.421875 c 0,-0.109375 -0.078125,-0.109375 -0.109375,-0.109375 -0.109375,0 -0.109375,0.046875 -0.140625,0.1875 -0.140625,0.5625 -0.328125,1.234375 -0.75,1.234375 -0.203125,0 -0.3125,-0.125 -0.3125,-0.453125 0,-0.21875 0.125,-0.6875 0.203125,-1.046875 0.09375,-0.359375 0.1875,-0.71875 0.28125,-1.078125 0.03125,-0.140625 0.125,-0.515625 0.171875,-0.671875 0.046875,-0.234375 0.140625,-0.609375 0.140625,-0.671875 0,-0.171875 -0.140625,-0.265625 -0.28125,-0.265625 -0.046875,0 -0.3125,0.015625 -0.390625,0.34375 -0.1875,0.734375 -0.625,2.484375 -0.75,3 -0.015625,0.046875 -0.40625,0.84375 -1.140625,0.84375 -0.515625,0 -0.609375,-0.453125 -0.609375,-0.8125 0,-0.5625 0.28125,-1.34375 0.53125,-2.03125 0.125,-0.3125 0.171875,-0.453125 0.171875,-0.640625 0,-0.4375 -0.3125,-0.8125 -0.8125,-0.8125 -0.953125,0 -1.3125,1.453125 -1.3125,1.53125 0,0.109375 0.09375,0.109375 0.109375,0.109375 0.109375,0 0.109375,-0.03125 0.15625,-0.1875 0.25,-0.859375 0.640625,-1.234375 1.015625,-1.234375 0.09375,0 0.25,0.015625 0.25,0.328125 0,0.234375 -0.109375,0.53125 -0.171875,0.671875 -0.375,1 -0.578125,1.609375 -0.578125,2.09375 0,0.953125 0.6875,1.203125 1.21875,1.203125 0.65625,0 1.015625,-0.453125 1.1875,-0.671875 z m 0,0"
   id="path3964"
   inkscape:connector-curvature="0" />
</symbol>
<symbol
   style="overflow:visible"
   overflow="visible"
   id="textext-1af510b9-2">
<path
   style="stroke:none"
   d="M 3.328125,-3.015625 C 3.390625,-3.265625 3.625,-4.1875 4.3125,-4.1875 c 0.046875,0 0.296875,0 0.5,0.125 C 4.53125,-4 4.34375,-3.765625 4.34375,-3.515625 c 0,0.15625 0.109375,0.34375 0.375,0.34375 0.21875,0 0.53125,-0.171875 0.53125,-0.578125 0,-0.515625 -0.578125,-0.65625 -0.921875,-0.65625 -0.578125,0 -0.921875,0.53125 -1.046875,0.75 -0.25,-0.65625 -0.78125,-0.75 -1.078125,-0.75 -1.03125,0 -1.609375,1.28125 -1.609375,1.53125 0,0.109375 0.109375,0.109375 0.125,0.109375 0.078125,0 0.109375,-0.03125 0.125,-0.109375 0.34375,-1.0625 1,-1.3125 1.34375,-1.3125 0.1875,0 0.53125,0.09375 0.53125,0.671875 0,0.3125 -0.171875,0.96875 -0.53125,2.375 -0.15625,0.609375 -0.515625,1.03125 -0.953125,1.03125 -0.0625,0 -0.28125,0 -0.5,-0.125 0.25,-0.0625 0.46875,-0.265625 0.46875,-0.546875 0,-0.265625 -0.21875,-0.34375 -0.359375,-0.34375 -0.3125,0 -0.546875,0.25 -0.546875,0.578125 0,0.453125 0.484375,0.65625 0.921875,0.65625 0.671875,0 1.03125,-0.703125 1.046875,-0.75 0.125,0.359375 0.484375,0.75 1.078125,0.75 1.03125,0 1.59375,-1.28125 1.59375,-1.53125 0,-0.109375 -0.078125,-0.109375 -0.109375,-0.109375 -0.09375,0 -0.109375,0.046875 -0.140625,0.109375 -0.328125,1.078125 -1,1.3125 -1.3125,1.3125 -0.390625,0 -0.546875,-0.3125 -0.546875,-0.65625 0,-0.21875 0.046875,-0.4375 0.15625,-0.875 l 0.34375,-1.375 z m 0,0"
   id="path3967"
   inkscape:connector-curvature="0" />
</symbol>
<symbol
   style="overflow:visible"
   overflow="visible"
   id="textext-1af510b9-3">
<path
   style="stroke:none"
   d="m 0.875,-0.59375 c -0.03125,0.15625 -0.09375,0.390625 -0.09375,0.4375 0,0.171875 0.140625,0.265625 0.296875,0.265625 0.125,0 0.296875,-0.078125 0.375,-0.28125 0,-0.015625 0.125,-0.484375 0.1875,-0.734375 C 1.703125,-1.203125 1.78125,-1.5 1.859375,-1.796875 1.90625,-2.03125 1.96875,-2.25 2.03125,-2.46875 c 0.03125,-0.171875 0.109375,-0.46875 0.125,-0.5 0.140625,-0.3125 0.671875,-1.21875 1.625,-1.21875 0.453125,0 0.53125,0.375 0.53125,0.703125 0,0.25 -0.0625,0.53125 -0.140625,0.828125 C 4.046875,-2.15625 4,-1.953125 3.890625,-1.5 3.78125,-1.140625 3.78125,-1.078125 3.6875,-0.75 c -0.03125,0.203125 -0.125,0.546875 -0.125,0.59375 0,0.171875 0.140625,0.265625 0.28125,0.265625 0.3125,0 0.375,-0.25 0.453125,-0.5625 0.140625,-0.5625 0.515625,-2.015625 0.59375,-2.40625 0.03125,-0.125 0.5625,-1.328125 1.65625,-1.328125 0.421875,0 0.53125,0.34375 0.53125,0.703125 0,0.5625 -0.421875,1.703125 -0.625,2.234375 -0.078125,0.234375 -0.125,0.34375 -0.125,0.546875 0,0.46875 0.34375,0.8125 0.8125,0.8125 0.9375,0 1.3125,-1.453125 1.3125,-1.53125 0,-0.109375 -0.09375,-0.109375 -0.125,-0.109375 -0.09375,0 -0.09375,0.03125 -0.140625,0.1875 -0.15625,0.53125 -0.46875,1.234375 -1.015625,1.234375 -0.171875,0 -0.25,-0.09375 -0.25,-0.328125 0,-0.25 0.09375,-0.484375 0.1875,-0.703125 0.1875,-0.53125 0.609375,-1.625 0.609375,-2.203125 0,-0.640625 -0.40625,-1.0625 -1.15625,-1.0625 -0.734375,0 -1.25,0.4375 -1.625,0.96875 0,-0.125 -0.03125,-0.46875 -0.3125,-0.703125 -0.25,-0.21875 -0.5625,-0.265625 -0.8125,-0.265625 -0.90625,0 -1.390625,0.640625 -1.5625,0.875 -0.046875,-0.578125 -0.46875,-0.875 -0.921875,-0.875 -0.453125,0 -0.640625,0.390625 -0.734375,0.5625 -0.171875,0.359375 -0.296875,0.9375 -0.296875,0.96875 0,0.109375 0.09375,0.109375 0.109375,0.109375 0.109375,0 0.109375,-0.015625 0.171875,-0.234375 0.171875,-0.703125 0.375,-1.1875 0.734375,-1.1875 0.15625,0 0.296875,0.078125 0.296875,0.453125 0,0.21875 -0.03125,0.328125 -0.15625,0.84375 L 0.875,-0.59375 z m 0,0"
   id="path3970"
   inkscape:connector-curvature="0" />
</symbol>
<symbol
   style="overflow:visible"
   overflow="visible"
   id="textext-1af510b9-4">
<path
   style="stroke:none"
   d="M 9.234375,-6.046875 C 9.328125,-6.40625 9.34375,-6.5 10.09375,-6.5 c 0.21875,0 0.3125,0 0.3125,-0.203125 0,-0.109375 -0.09375,-0.109375 -0.265625,-0.109375 l -1.3125,0 c -0.265625,0 -0.28125,0 -0.390625,0.1875 L 4.796875,-0.9375 4.015625,-6.578125 C 3.984375,-6.8125 3.96875,-6.8125 3.703125,-6.8125 l -1.359375,0 c -0.1875,0 -0.296875,0 -0.296875,0.1875 0,0.125 0.09375,0.125 0.28125,0.125 0.140625,0 0.3125,0.015625 0.4375,0.015625 0.15625,0.03125 0.21875,0.046875 0.21875,0.171875 0,0.03125 -0.015625,0.0625 -0.046875,0.1875 l -1.265625,5.0625 c -0.09375,0.40625 -0.265625,0.71875 -1.078125,0.75 -0.046875,0 -0.171875,0.015625 -0.171875,0.1875 0,0.09375 0.0625,0.125 0.140625,0.125 0.3125,0 0.65625,-0.03125 1,-0.03125 C 1.890625,-0.03125 2.25,0 2.578125,0 c 0.046875,0 0.1875,0 0.1875,-0.203125 0,-0.109375 -0.109375,-0.109375 -0.1875,-0.109375 -0.5625,0 -0.671875,-0.203125 -0.671875,-0.4375 0,-0.0625 0,-0.125 0.03125,-0.234375 l 1.359375,-5.421875 0.015625,0 0.859375,6.171875 C 4.1875,-0.109375 4.203125,0 4.3125,0 4.421875,0 4.484375,-0.109375 4.53125,-0.171875 l 4.03125,-6.3125 0.015625,0 -1.4375,5.703125 c -0.09375,0.390625 -0.109375,0.46875 -0.90625,0.46875 -0.15625,0 -0.265625,0 -0.265625,0.1875 C 5.96875,0 6.078125,0 6.109375,0 6.390625,0 7.0625,-0.03125 7.34375,-0.03125 7.75,-0.03125 8.1875,0 8.59375,0 8.65625,0 8.78125,0 8.78125,-0.203125 8.78125,-0.3125 8.6875,-0.3125 8.5,-0.3125 c -0.359375,0 -0.640625,0 -0.640625,-0.171875 0,-0.046875 0,-0.0625 0.046875,-0.25 l 1.328125,-5.3125 z m 0,0"
   id="path3973"
   inkscape:connector-curvature="0" />
</symbol>
<symbol
   style="overflow:visible"
   overflow="visible"
   id="textext-1af510b9-5">
<path
   style="stroke:none"
   d="m 2.578125,-6.8125 c 0,0 0,-0.109375 -0.140625,-0.109375 -0.21875,0 -0.953125,0.078125 -1.21875,0.109375 -0.078125,0 -0.1875,0.015625 -0.1875,0.203125 0,0.109375 0.109375,0.109375 0.25,0.109375 0.484375,0 0.5,0.09375 0.5,0.171875 L 1.75,-6.125 0.484375,-1.140625 C 0.453125,-1.03125 0.4375,-0.96875 0.4375,-0.8125 c 0,0.578125 0.4375,0.921875 0.90625,0.921875 0.328125,0 0.578125,-0.203125 0.75,-0.5625 0.171875,-0.375 0.296875,-0.953125 0.296875,-0.96875 0,-0.109375 -0.09375,-0.109375 -0.125,-0.109375 -0.09375,0 -0.109375,0.046875 -0.125,0.1875 C 1.96875,-0.703125 1.78125,-0.109375 1.375,-0.109375 c -0.296875,0 -0.296875,-0.3125 -0.296875,-0.453125 0,-0.25 0.015625,-0.296875 0.0625,-0.484375 l 1.4375,-5.765625 z m 0,0"
   id="path3976"
   inkscape:connector-curvature="0" />
</symbol>
<symbol
   style="overflow:visible"
   overflow="visible"
   id="textext-1af510b9-6">
<path
   style="stroke:none"
   d="M 4.6875,-3.765625 C 4.703125,-3.8125 4.71875,-3.875 4.71875,-3.9375 c 0,-0.171875 -0.109375,-0.265625 -0.28125,-0.265625 -0.09375,0 -0.375,0.0625 -0.40625,0.421875 -0.1875,-0.359375 -0.53125,-0.625 -0.9375,-0.625 -1.125,0 -2.359375,1.390625 -2.359375,2.828125 0,0.984375 0.59375,1.578125 1.3125,1.578125 0.59375,0 1.0625,-0.46875 1.15625,-0.578125 L 3.21875,-0.5625 C 3.015625,0.3125 2.890625,0.734375 2.890625,0.75 2.84375,0.84375 2.515625,1.828125 1.453125,1.828125 1.265625,1.828125 0.9375,1.8125 0.65625,1.71875 0.953125,1.640625 1.0625,1.375 1.0625,1.203125 c 0,-0.15625 -0.109375,-0.34375 -0.375,-0.34375 -0.21875,0 -0.53125,0.171875 -0.53125,0.578125 0,0.40625 0.359375,0.609375 1.3125,0.609375 1.25,0 1.96875,-0.78125 2.125,-1.375 l 1.09375,-4.4375 z M 3.40625,-1.28125 C 3.34375,-1.015625 3.109375,-0.765625 2.890625,-0.578125 2.6875,-0.40625 2.375,-0.21875 2.078125,-0.21875 c -0.5,0 -0.640625,-0.515625 -0.640625,-0.921875 0,-0.46875 0.28125,-1.65625 0.5625,-2.15625 C 2.265625,-3.78125 2.6875,-4.1875 3.109375,-4.1875 c 0.65625,0 0.796875,0.8125 0.796875,0.859375 0,0.046875 -0.015625,0.109375 -0.03125,0.140625 l -0.46875,1.90625 z m 0,0"
   id="path3979"
   inkscape:connector-curvature="0" />
</symbol>
<symbol
   style="overflow:visible"
   overflow="visible"
   id="textext-1af510b9-7">
<path
   style="stroke:none"
   d=""
   id="path3982"
   inkscape:connector-curvature="0" />
</symbol>
<symbol
   style="overflow:visible"
   overflow="visible"
   id="textext-1af510b9-8">
<path
   style="stroke:none"
   d="m 2.84375,-2.75 0.671875,0 C 3.65625,-2.75 3.75,-2.75 3.75,-2.90625 3.75,-3 3.65625,-3 3.53125,-3 l -0.640625,0 c 0.15625,-0.890625 0.203125,-1.203125 0.265625,-1.40625 0.03125,-0.15625 0.1875,-0.296875 0.359375,-0.296875 0,0 0.1875,0 0.328125,0.078125 -0.296875,0.09375 -0.3125,0.34375 -0.3125,0.375 0,0.15625 0.125,0.265625 0.28125,0.265625 0.1875,0 0.390625,-0.15625 0.390625,-0.421875 0,-0.328125 -0.328125,-0.5 -0.6875,-0.5 -0.3125,0 -0.65625,0.171875 -0.84375,0.515625 C 2.53125,-4.125 2.484375,-3.8125 2.328125,-3 L 1.78125,-3 c -0.140625,0 -0.234375,0 -0.234375,0.15625 0,0.09375 0.09375,0.09375 0.21875,0.09375 l 0.515625,0 c 0,0.046875 -0.4375,2.546875 -0.609375,3.296875 -0.03125,0.15625 -0.15625,0.671875 -0.484375,0.671875 -0.015625,0 -0.171875,0 -0.3125,-0.078125 0.28125,-0.09375 0.3125,-0.34375 0.3125,-0.375 C 1.1875,0.609375 1.0625,0.5 0.90625,0.5 c -0.1875,0 -0.390625,0.15625 -0.390625,0.421875 0,0.3125 0.328125,0.5 0.671875,0.5 0.4375,0 0.75,-0.453125 0.828125,-0.609375 0.25,-0.46875 0.421875,-1.328125 0.4375,-1.40625 L 2.84375,-2.75 z m 0,0"
   id="path3985"
   inkscape:connector-curvature="0" />
</symbol>
<symbol
   style="overflow:visible"
   overflow="visible"
   id="textext-1af510b9-9">
<path
   style="stroke:none"
   d=""
   id="path3988"
   inkscape:connector-curvature="0" />
</symbol>
<symbol
   style="overflow:visible"
   overflow="visible"
   id="textext-1af510b9-10">
<path
   style="stroke:none"
   d="m 2.328125,-4.4375 c 0,-0.1875 0,-0.1875 -0.203125,-0.1875 -0.453125,0.4375 -1.078125,0.4375 -1.359375,0.4375 l 0,0.25 c 0.15625,0 0.625,0 1,-0.1875 l 0,3.546875 c 0,0.234375 0,0.328125 -0.6875,0.328125 l -0.265625,0 0,0.25 c 0.125,0 0.984375,-0.03125 1.234375,-0.03125 0.21875,0 1.09375,0.03125 1.25,0.03125 l 0,-0.25 -0.265625,0 c -0.703125,0 -0.703125,-0.09375 -0.703125,-0.328125 l 0,-3.859375 z m 0,0"
   id="path3991"
   inkscape:connector-curvature="0" />
</symbol>
<symbol
   style="overflow:visible"
   overflow="visible"
   id="textext-1af510b9-11">
<path
   style="stroke:none"
   d="m 3.515625,-1.265625 -0.234375,0 c -0.015625,0.15625 -0.09375,0.5625 -0.1875,0.625 -0.046875,0.046875 -0.578125,0.046875 -0.6875,0.046875 l -1.28125,0 c 0.734375,-0.640625 0.984375,-0.84375 1.390625,-1.171875 0.515625,-0.40625 1,-0.84375 1,-1.5 0,-0.84375 -0.734375,-1.359375 -1.625,-1.359375 -0.859375,0 -1.453125,0.609375 -1.453125,1.25 0,0.34375 0.296875,0.390625 0.375,0.390625 0.15625,0 0.359375,-0.125 0.359375,-0.375 0,-0.125 -0.046875,-0.375 -0.40625,-0.375 C 0.984375,-4.21875 1.453125,-4.375 1.78125,-4.375 c 0.703125,0 1.0625,0.546875 1.0625,1.109375 0,0.609375 -0.4375,1.078125 -0.65625,1.328125 L 0.515625,-0.265625 C 0.4375,-0.203125 0.4375,-0.1875 0.4375,0 l 2.875,0 0.203125,-1.265625 z m 0,0"
   id="path3994"
   inkscape:connector-curvature="0" />
</symbol>
</g>
</defs>












<inkscape:perspective
   id="perspective4307"
   inkscape:persp3d-origin="0.5 : 0.33333333 : 1"
   inkscape:vp_z="1 : 0.5 : 1"
   inkscape:vp_y="0 : 1000 : 0"
   inkscape:vp_x="0 : 0.5 : 1"
   sodipodi:type="inkscape:persp3d" /><marker
   style="overflow:visible"
   id="Arrow2Mstart-7"
   refX="0"
   refY="0"
   orient="auto"
   inkscape:stockid="Arrow2Mstart"><path
     transform="scale(0.6,0.6)"
     d="M 8.7185878,4.0337352 -2.2072895,0.01601326 8.7185884,-4.0017078 c -1.7454984,2.3720609 -1.7354408,5.6174519 -6e-7,8.035443 z"
     style="fill-rule:evenodd;stroke-width:0.625;stroke-linejoin:round"
     id="path4352"
     inkscape:connector-curvature="0" /></marker><marker
   style="overflow:visible"
   id="Arrow2Mstart-4"
   refX="0"
   refY="0"
   orient="auto"
   inkscape:stockid="Arrow2Mstart"><path
     transform="scale(0.6,0.6)"
     d="M 8.7185878,4.0337352 -2.2072895,0.01601326 8.7185884,-4.0017078 c -1.7454984,2.3720609 -1.7354408,5.6174519 -6e-7,8.035443 z"
     style="fill-rule:evenodd;stroke-width:0.625;stroke-linejoin:round"
     id="path4352-7"
     inkscape:connector-curvature="0" /></marker>









<marker
   inkscape:stockid="Arrow2Mstart"
   orient="auto"
   refY="0"
   refX="0"
   id="Arrow2Mstart-2"
   style="overflow:visible"><path
     id="path3815"
     style="fill-rule:evenodd;stroke-width:0.625;stroke-linejoin:round"
     d="M 8.7185878,4.0337352 -2.2072895,0.01601326 8.7185884,-4.0017078 c -1.7454984,2.3720609 -1.7354408,5.6174519 -6e-7,8.035443 z"
     transform="scale(0.6,0.6)"
     inkscape:connector-curvature="0" /></marker><marker
   inkscape:stockid="Arrow2Mstart"
   orient="auto"
   refY="0"
   refX="0"
   id="Arrow2Mstart-22"
   style="overflow:visible"><path
     id="path4358-5"
     style="font-size:12px;fill-rule:evenodd;stroke-width:0.625;stroke-linejoin:round"
     d="M 8.7185878,4.0337352 -2.2072895,0.01601326 8.7185884,-4.0017078 c -1.7454984,2.3720609 -1.7354408,5.6174519 -6e-7,8.035443 z"
     transform="scale(0.6)"
     inkscape:connector-curvature="0" /></marker><marker
   inkscape:stockid="Arrow2Mstart"
   orient="auto"
   refY="0"
   refX="0"
   id="marker15447"
   style="overflow:visible"><path
     id="path15445"
     style="font-size:12px;fill-rule:evenodd;stroke-width:0.625;stroke-linejoin:round"
     d="M 8.7185878,4.0337352 -2.2072895,0.01601326 8.7185884,-4.0017078 c -1.7454984,2.3720609 -1.7354408,5.6174519 -6e-7,8.035443 z"
     transform="scale(0.6)"
     inkscape:connector-curvature="0" /></marker></defs><g
     id="g3417"
     inkscape:groupmode="layer"
     inkscape:label="pendel_wagen_AB"
     transform="matrix(1.25 0 0 -1.25 -14.3948 96.9747)"><path
       id="path3421"
       style="fill:#ffffff;fill-opacity:1;fill-rule:nonzero;stroke:#000000;stroke-width:0.80000007;stroke-linecap:butt;stroke-linejoin:miter;stroke-miterlimit:4;stroke-opacity:1;stroke-dasharray:none"
       d="m 62.381296,71.415069 71.536504,0 0,-26.847458 -71.536504,0 0,26.847458 z"
       inkscape:connector-curvature="0"
       inkscape:export-filename="..\Documents\portalkran.png"
       inkscape:export-xdpi="300"
       inkscape:export-ydpi="300" /><path
       id="path3545"
       style="fill:none;stroke:#000000;stroke-width:0.39999998;stroke-linecap:butt;stroke-linejoin:miter;stroke-miterlimit:4;stroke-opacity:1;stroke-dasharray:1.60000001, 1.60000001;stroke-dashoffset:2.88000037"
       d="m 98.008529,49.606375 0,-66.622292"
       inkscape:connector-curvature="0" /><path
       d="m 34.780846,39.441804 125.919244,0 -125.919244,0 z"
       style="fill:#ffffff;fill-opacity:1;fill-rule:nonzero;stroke:#000000;stroke-width:0.79999989;stroke-linecap:butt;stroke-linejoin:miter;stroke-miterlimit:4;stroke-opacity:1;stroke-dasharray:none;display:inline"
       id="path5052"
       inkscape:connector-curvature="0" /><g
       id="g3931"
       transform="matrix(-1.5,0,0,-1.5,215.76383,158.01458)"><path
         sodipodi:open="true"
         sodipodi:end="1.3723072"
         sodipodi:start="0.32790083"
         transform="matrix(-2.4262597,0.55132962,0.56064482,2.5114065,106.55621,-36.438325)"
         d="m 30.020105,49.170687 c -0.907584,2.667941 -3.16605,4.651537 -5.928806,5.207231"
         sodipodi:ry="7.910008"
         sodipodi:rx="7.910008"
         sodipodi:cy="46.623219"
         sodipodi:cx="22.531538"
         id="path4865"
         style="fill:none;stroke:#000000;stroke-width:0.1053893;stroke-miterlimit:4;stroke-opacity:1;stroke-dasharray:none;stroke-dashoffset:0"
         sodipodi:type="arc" /><path
         style="fill:#ffffff;fill-opacity:1;stroke:#000000;stroke-width:0.26666668;stroke-linecap:round;stroke-miterlimit:4;stroke-opacity:1;stroke-dasharray:none;stroke-dashoffset:0;marker-start:url(#Arrow2Mstart);display:inline"
         d="m 60.431522,102.21236 0.818862,1.37097"
         id="path3261"
         inkscape:connector-curvature="0"
         sodipodi:nodetypes="cc" /></g><g
       id="g3944"
       transform="matrix(1.5,0,0,1.5,-68.039204,-44.275583)"><path
         d="m 128.88293,58.861794 c 0,-1.3264 -1.0732,-2.4 -2.4,-2.4 -1.3248,0 -2.4,1.0736 -2.4,2.4 0,1.3252 1.0752,2.4 2.4,2.4 1.3268,0 2.4,-1.0748 2.4,-2.4 z"
         style="fill:#ffffff;fill-opacity:1;fill-rule:nonzero;stroke:#000000;stroke-width:0.53333336;stroke-linecap:butt;stroke-linejoin:miter;stroke-miterlimit:4;stroke-opacity:1;stroke-dasharray:none"
         id="path3120-0"
         inkscape:connector-curvature="0" /><path
         id="path5307"
         style="fill:#000000;fill-opacity:1;fill-rule:nonzero;stroke:#000000;stroke-width:0.26666668;stroke-linecap:butt;stroke-linejoin:miter;stroke-miterlimit:4;stroke-opacity:1;stroke-dasharray:none"
         d="m 126.68203,58.861804 c 0,-0.11012 -0.0891,-0.19912 -0.1991,-0.19912 -0.10996,0 -0.1991,0.0891 -0.1991,0.19912 0,0.10997 0.0892,0.1991 0.1991,0.1991 0.11012,0 0.1991,-0.0892 0.1991,-0.1991 z"
         inkscape:connector-curvature="0" /></g><path
       d="m 79.685195,44.017108 c 0,-1.9896 -1.6098,-3.6 -3.6,-3.6 -1.9872,0 -3.6,1.6104 -3.6,3.6 0,1.9878 1.6128,3.6 3.6,3.6 1.9902,0 3.6,-1.6122 3.6,-3.6 z"
       style="fill:#ffffff;fill-opacity:1;fill-rule:nonzero;stroke:#000000;stroke-width:0.80000007;stroke-linecap:butt;stroke-linejoin:miter;stroke-miterlimit:4;stroke-opacity:1;stroke-dasharray:none"
       id="path3950"
       inkscape:connector-curvature="0" /><path
       id="path3952"
       style="fill:#000000;fill-opacity:1;fill-rule:nonzero;stroke:#000000;stroke-width:0.40000004;stroke-linecap:butt;stroke-linejoin:miter;stroke-miterlimit:4;stroke-opacity:1;stroke-dasharray:none"
       d="m 76.383845,44.017123 c 0,-0.16518 -0.13365,-0.29868 -0.29865,-0.29868 -0.16494,0 -0.29865,0.13365 -0.29865,0.29868 0,0.164955 0.1338,0.29865 0.29865,0.29865 0.16518,0 0.29865,-0.1338 0.29865,-0.29865 z"
       inkscape:connector-curvature="0" /><path
       d="m 52.959426,57.103547 -24.273924,0"
       style="fill:none;stroke:#000000;stroke-width:1.60000002;stroke-linecap:butt;stroke-linejoin:miter;stroke-miterlimit:4;stroke-opacity:1;stroke-dasharray:none"
       id="path3423-6"
       inkscape:connector-curvature="0" /><path
       d="m 50.401478,59.366717 6.112524,-2.246258 -6.112524,-2.248582 c 0.977446,1.326309 0.971228,3.143673 0,4.49484 z"
       style="fill:#000000;fill-opacity:1;fill-rule:evenodd;stroke:none"
       id="path3425-8"
       inkscape:connector-curvature="0" /><path
       inkscape:connector-curvature="0"
       id="path5011"
       style="fill:#ffffff;stroke:#ffffff;stroke-width:0.5;stroke-linecap:butt;stroke-linejoin:miter;stroke-miterlimit:4;stroke-opacity:1;stroke-dasharray:none"
       d="m 51.09249,57.103547 -22.495848,0" /><path
       style="font-style:normal;font-variant:normal;font-weight:normal;font-stretch:normal;letter-spacing:normal;word-spacing:normal;text-anchor:start;fill:#000000;fill-opacity:1;fill-rule:evenodd;stroke:#000000;stroke-width:0;stroke-linecap:butt;stroke-linejoin:miter;stroke-miterlimit:10.43299961;stroke-opacity:1;stroke-dasharray:none;stroke-dashoffset:0"
       inkscape:connector-curvature="0"
       d="m 57.665864,14.247785 0,0.012 0,0.012 0.012,0.012 0,0.012 0,0.024 0.012,0.024 0,0.012 0,0.012 0,0.012 0.012,0.012 0,0.012 0,0.012 0,0.012 0,0 0,0.012 0,0.012 0,0 0,0.012 c 0,0.204 -0.144,0.324 -0.348,0.324 -0.12,0 -0.444,-0.084 -0.492,-0.516 -0.216,0.444 -0.624,0.756 -1.104,0.756 l 0.012,-0.264 c 0.792,0 0.948,-0.972 0.948,-1.032 0,-0.06 -0.024,-0.132 -0.036,-0.18 l -0.564,-2.268 c -0.072,-0.312 -0.348,-0.612 -0.612,-0.84 -0.252,-0.216 -0.624,-0.432 -0.972,-0.432 -0.588,0 -0.768,0.624 -0.768,1.104 0,0.564 0.336,1.98 0.66,2.58 0.324,0.588 0.84,1.068 1.344,1.068 l -0.012,0.264 c -1.368,0 -2.844,-1.68 -2.844,-3.396 0,-1.176 0.732,-1.8839997 1.584,-1.8839997 0.708,0 1.272,0.5639997 1.392,0.6959997 l 0.012,-0.012 c -0.252,-1.0559997 -0.396,-1.5479997 -0.396,-1.5719997 -0.048,-0.108 -0.456,-1.28401 -1.716,-1.28401 -0.228,0 -0.624,0.012 -0.96,0.12 0.36,0.108 0.492,0.408 0.492,0.61201 0,0.192 -0.132,0.42 -0.456,0.42 -0.264,0 -0.648,-0.216 -0.648,-0.69601 0,-0.48 0.444,-0.72 1.596,-0.72 1.488,0 2.352,0.92401 2.532,1.64401 z"
       id="path5550" /><path
       d="m 45.097734,-1.6384647 0,16.0207797"
       style="fill:none;stroke:#000000;stroke-width:0.80000007;stroke-linecap:butt;stroke-linejoin:miter;stroke-miterlimit:4;stroke-opacity:1;stroke-dasharray:none"
       id="path5633"
       inkscape:connector-curvature="0" /><path
       d="m 43.072334,0.25379535 2.01396,-5.48038105 2.01604,5.48038105 c -1.18914,-0.87636 -2.81856,-0.87079 -4.03,0 z"
       style="fill:#000000;fill-opacity:1;fill-rule:evenodd;stroke:none"
       id="path5635"
       inkscape:connector-curvature="0" /><g
       id="g3356"
       transform="matrix(-1,0,0,-1,195.22919,109.19446)"><path
         style="fill:none;stroke:#000000;stroke-width:0.80000007px;stroke-linecap:butt;stroke-linejoin:miter;stroke-opacity:1"
         d="m 97.352102,55.031218 -37.565697,64.690272 -1.654522,2.85072"
         id="path3139"
         inkscape:connector-curvature="0"
         sodipodi:nodetypes="ccc" /><rect
         style="fill:none;stroke:#000000;stroke-width:1"
         id="rect3143"
         width="10.067284"
         height="10.067284"
         x="106.57146"
         y="76.636078"
         transform="matrix(0.8660254,0.50000001,-0.50000001,0.8660254,0,0)" /><g
         style="display:inline"
         id="g3362"
         transform="matrix(0.0677978,-0.11778388,-0.11778388,-0.0677978,135.30859,116.73368)"><path
           sodipodi:open="true"
           sodipodi:end="3.1415927"
           sodipodi:start="0"
           transform="matrix(0.28225203,0,0,0.28225203,-59.889268,393.71496)"
           d="m -985.9375,273.68665 c 0,31.49749 -25.5338,57.03125 -57.0313,57.03125 -31.4974,0 -57.0312,-25.53376 -57.0312,-57.03125 0,-10e-6 0,-10e-6 0,-10e-6"
           sodipodi:ry="57.03125"
           sodipodi:rx="57.03125"
           sodipodi:cy="273.68665"
           sodipodi:cx="-1042.9688"
           id="path3364"
           style="fill:#000000;fill-opacity:1;stroke:none"
           sodipodi:type="arc" /><path
           sodipodi:type="arc"
           style="fill:#ffffff;stroke:none"
           id="path3366"
           sodipodi:cx="-1042.9688"
           sodipodi:cy="273.68665"
           sodipodi:rx="57.03125"
           sodipodi:ry="57.03125"
           d="m -985.9375,273.68665 c 0,31.49749 -25.5338,57.03125 -57.0313,57.03125 -31.4974,0 -57.0312,-25.53376 -57.0312,-57.03125 0,-10e-6 0,-10e-6 0,-10e-6"
           transform="matrix(0,0.28225203,-0.28225203,0,-277.0207,765.34361)"
           sodipodi:start="0"
           sodipodi:end="3.1415927"
           sodipodi:open="true" /><path
           sodipodi:open="true"
           sodipodi:end="3.1415927"
           sodipodi:start="0"
           transform="matrix(0.28225203,0,0,-0.28225203,-59.889268,548.21218)"
           d="m -985.9375,273.68665 c 0,31.49749 -25.5338,57.03125 -57.0313,57.03125 -31.4974,0 -57.0312,-25.53376 -57.0312,-57.03125 0,-10e-6 0,-10e-6 0,-10e-6"
           sodipodi:ry="57.03125"
           sodipodi:rx="57.03125"
           sodipodi:cy="273.68665"
           sodipodi:cx="-1042.9688"
           id="path3368"
           style="fill:#000000;stroke:none"
           sodipodi:type="arc" /><path
           sodipodi:type="arc"
           style="fill:#ffffff;stroke:none"
           id="path3370"
           sodipodi:cx="-1042.9688"
           sodipodi:cy="273.68665"
           sodipodi:rx="57.03125"
           sodipodi:ry="57.03125"
           d="m -985.9375,273.68665 c 0,31.49748 -25.5338,57.03124 -57.0312,57.03125 l -1e-4,-57.03125 z"
           transform="matrix(0.28225203,0,0,-0.28225203,-59.889268,548.21218)"
           sodipodi:start="0"
           sodipodi:end="1.5707963" /><g
           id="g3372"><path
             transform="matrix(0.28225203,0,0,-0.28225203,-59.889268,548.21218)"
             d="m -985.9375,273.68665 c 0,31.49749 -25.5338,57.03125 -57.0313,57.03125 -31.4974,0 -57.0312,-25.53376 -57.0312,-57.03125 0,-31.49749 25.5338,-57.03125 57.0312,-57.03125 31.4975,0 57.0313,25.53376 57.0313,57.03125 z"
             sodipodi:ry="57.03125"
             sodipodi:rx="57.03125"
             sodipodi:cy="273.68665"
             sodipodi:cx="-1042.9688"
             id="path3374"
             style="fill:none;stroke:#000000;stroke-width:2.60696006;stroke-miterlimit:4;stroke-opacity:1;stroke-dasharray:none;stroke-dashoffset:9.75000018"
             sodipodi:type="arc" /></g></g></g><path
       d="m 101.7263,54.151108 c 0,-1.9896 -1.6098,-3.6 -3.600004,-3.6 -1.9872,0 -3.6,1.6104 -3.6,3.6 0,1.9878 1.6128,3.6 3.6,3.6 1.990204,0 3.600004,-1.6122 3.600004,-3.6 z"
       style="fill:#ffffff;fill-opacity:1;fill-rule:nonzero;stroke:#000000;stroke-width:0.80000007;stroke-linecap:butt;stroke-linejoin:miter;stroke-miterlimit:4;stroke-opacity:1;stroke-dasharray:none"
       id="path3292"
       inkscape:connector-curvature="0" /><g
       transform="matrix(1.1921918,0,0,-1.2,-258.29527,696.89909)"
       id="g5001"><path
         style="fill:none;stroke:#000000;stroke-width:0.33442312;stroke-linecap:butt;stroke-linejoin:miter;stroke-miterlimit:4;stroke-opacity:1;stroke-dasharray:none;marker-start:url(#Arrow2Mstart)"
         d="m 268.32869,523.8487 -34.85248,0"
         id="path4807"
         inkscape:connector-curvature="0"
         sodipodi:nodetypes="cc" /><path
         style="fill:none;stroke:#000000;stroke-width:0.33442312;stroke-linecap:butt;stroke-linejoin:miter;stroke-miterlimit:4;stroke-opacity:1;stroke-dasharray:none"
         d="m 233.33559,522.71336 0,2.08117"
         id="path4993"
         inkscape:connector-curvature="0" /></g><g
       id="g3197"
       transform="translate(0.3119726,9.2425799)"><path
         sodipodi:nodetypes="ccc"
         inkscape:connector-curvature="0"
         id="rect3259"
         d="m 11.303857,45.245194 8.269672,0 0,18.1125"
         style="fill:none;stroke:#000000;stroke-width:0.2;stroke-linecap:butt;stroke-miterlimit:4;stroke-opacity:1;stroke-dashoffset:1.41732283" /><path
         sodipodi:nodetypes="cc"
         inkscape:connector-curvature="0"
         id="path3262"
         d="m 17.973529,45.245194 -1.6,1.6"
         style="fill:none;stroke:#000000;stroke-width:0.16;stroke-linecap:butt;stroke-linejoin:miter;stroke-miterlimit:4;stroke-opacity:1;stroke-dasharray:none" /><path
         sodipodi:nodetypes="cc"
         style="fill:none;stroke:#000000;stroke-width:0.16;stroke-linecap:butt;stroke-linejoin:miter;stroke-miterlimit:4;stroke-opacity:1;stroke-dasharray:none"
         d="m 19.573529,45.245194 -1.6,1.6"
         id="path4044"
         inkscape:connector-curvature="0" /><path
         sodipodi:nodetypes="cc"
         inkscape:connector-curvature="0"
         id="path4046"
         d="m 19.573529,46.845194 -1.6,1.6"
         style="fill:none;stroke:#000000;stroke-width:0.16;stroke-linecap:butt;stroke-linejoin:miter;stroke-miterlimit:4;stroke-opacity:1;stroke-dasharray:none" /><path
         sodipodi:nodetypes="cc"
         style="fill:none;stroke:#000000;stroke-width:0.16;stroke-linecap:butt;stroke-linejoin:miter;stroke-miterlimit:4;stroke-opacity:1;stroke-dasharray:none"
         d="m 19.573529,48.445194 -1.6,1.6"
         id="path4048"
         inkscape:connector-curvature="0" /><path
         sodipodi:nodetypes="cc"
         inkscape:connector-curvature="0"
         id="path4050"
         d="m 19.573529,50.045194 -1.6,1.6"
         style="fill:none;stroke:#000000;stroke-width:0.16;stroke-linecap:butt;stroke-linejoin:miter;stroke-miterlimit:4;stroke-opacity:1;stroke-dasharray:none" /><path
         sodipodi:nodetypes="cc"
         style="fill:none;stroke:#000000;stroke-width:0.16;stroke-linecap:butt;stroke-linejoin:miter;stroke-miterlimit:4;stroke-opacity:1;stroke-dasharray:none"
         d="m 13.173529,45.245194 -1.6,1.6"
         id="path4056"
         inkscape:connector-curvature="0" /><path
         sodipodi:nodetypes="cc"
         inkscape:connector-curvature="0"
         id="path4058"
         d="m 14.773529,45.245194 -1.6,1.6"
         style="fill:none;stroke:#000000;stroke-width:0.16;stroke-linecap:butt;stroke-linejoin:miter;stroke-miterlimit:4;stroke-opacity:1;stroke-dasharray:none" /><path
         sodipodi:nodetypes="cc"
         style="fill:none;stroke:#000000;stroke-width:0.16;stroke-linecap:butt;stroke-linejoin:miter;stroke-miterlimit:4;stroke-opacity:1;stroke-dasharray:none"
         d="m 16.373529,45.245194 -1.6,1.6"
         id="path4060"
         inkscape:connector-curvature="0" /><path
         style="fill:none;stroke:#000000;stroke-width:0.16;stroke-linecap:butt;stroke-linejoin:miter;stroke-miterlimit:4;stroke-opacity:1;stroke-dasharray:none"
         d="m 19.573529,51.645194 -1.6,1.6"
         id="path3127"
         inkscape:connector-curvature="0"
         sodipodi:nodetypes="cc" /><path
         inkscape:connector-curvature="0"
         id="path3129"
         d="m 19.573529,54.845194 -1.6,1.6"
         style="fill:none;stroke:#000000;stroke-width:0.16;stroke-linecap:butt;stroke-linejoin:miter;stroke-miterlimit:4;stroke-opacity:1;stroke-dasharray:none"
         sodipodi:nodetypes="cc" /><path
         style="fill:none;stroke:#000000;stroke-width:0.16;stroke-linecap:butt;stroke-linejoin:miter;stroke-miterlimit:4;stroke-opacity:1;stroke-dasharray:none"
         d="m 19.573529,56.445194 -1.6,1.6"
         id="path3131"
         inkscape:connector-curvature="0"
         sodipodi:nodetypes="cc" /><path
         inkscape:connector-curvature="0"
         id="path3133"
         d="m 19.573529,58.045194 -1.6,1.6"
         style="fill:none;stroke:#000000;stroke-width:0.16;stroke-linecap:butt;stroke-linejoin:miter;stroke-miterlimit:4;stroke-opacity:1;stroke-dasharray:none"
         sodipodi:nodetypes="cc" /><path
         style="fill:none;stroke:#000000;stroke-width:0.16;stroke-linecap:butt;stroke-linejoin:miter;stroke-miterlimit:4;stroke-opacity:1;stroke-dasharray:none"
         d="m 19.573529,59.645194 -1.6,1.6"
         id="path3135"
         inkscape:connector-curvature="0"
         sodipodi:nodetypes="cc" /><path
         sodipodi:nodetypes="cc"
         inkscape:connector-curvature="0"
         id="path3137"
         d="m 19.573529,61.245194 -1.6,1.6"
         style="fill:none;stroke:#000000;stroke-width:0.16;stroke-linecap:butt;stroke-linejoin:miter;stroke-miterlimit:4;stroke-opacity:1;stroke-dasharray:none" /><path
         sodipodi:nodetypes="cc"
         inkscape:connector-curvature="0"
         id="path3148"
         d="m 19.573529,53.245194 -1.6,1.6"
         style="fill:none;stroke:#000000;stroke-width:0.16;stroke-linecap:butt;stroke-linejoin:miter;stroke-miterlimit:4;stroke-opacity:1;stroke-dasharray:none" /></g><g
       transform="matrix(1.06667,0,0,-1.06667,122.0953,24.760781)"
       ns1:version="1.8.1"
       ns1:texconverter="pdflatex"
       ns1:pdfconverter="inkscape"
       ns1:text="$l$"
       ns1:preamble="C:\Users\Julius Fiedler\AppData\Roaming\inkscape\extensions\textext\default_packages.tex"
       ns1:scale="1.0"
       ns1:alignment="middle center"
       ns1:stroke-to-path="0"
       ns1:inkscapeversion="1.2"
       ns1:jacobian_sqrt="1.06667"
       id="g16644"><defs
   id="id-c73c4199-437f-4634-952f-3c1c7b06e158">
    <g
   id="id-8c35827c-8b60-4a99-bab6-0d9c73af8c8d">
      <g
   id="id-cb8de0aa-759a-415c-969d-00698ecd77de" />
      <g
   id="id-1f6b2bb6-b3c1-4349-b42e-5bbc07a1bae3">
        <path
   d="m 2.578125,-6.8125 c 0,0 0,-0.109375 -0.140625,-0.109375 -0.21875,0 -0.953125,0.078125 -1.21875,0.109375 -0.078125,0 -0.1875,0.015625 -0.1875,0.203125 0,0.109375 0.109375,0.109375 0.25,0.109375 0.484375,0 0.5,0.09375 0.5,0.171875 L 1.75,-6.125 0.484375,-1.140625 C 0.453125,-1.03125 0.4375,-0.96875 0.4375,-0.8125 c 0,0.578125 0.4375,0.921875 0.90625,0.921875 0.328125,0 0.578125,-0.203125 0.75,-0.5625 0.171875,-0.375 0.296875,-0.953125 0.296875,-0.96875 0,-0.109375 -0.09375,-0.109375 -0.125,-0.109375 -0.09375,0 -0.109375,0.046875 -0.125,0.1875 C 1.96875,-0.703125 1.78125,-0.109375 1.375,-0.109375 c -0.296875,0 -0.296875,-0.3125 -0.296875,-0.453125 0,-0.25 0.015625,-0.296875 0.0625,-0.484375 z m 0,0"
   id="id-3ea33872-87c7-476d-bc7f-e0a189486404" />
      </g>
    </g>
  </defs>
  <g
   fill="#000000"
   fill-opacity="1"
   id="id-9cbfc457-6d3c-49ab-b032-05b364d7418d"
   transform="translate(-149.15,-127.843)">
    <g
   transform="translate(148.712,134.765)"
   id="g17772"><path
   d="m 2.578125,-6.8125 c 0,0 0,-0.109375 -0.140625,-0.109375 -0.21875,0 -0.953125,0.078125 -1.21875,0.109375 -0.078125,0 -0.1875,0.015625 -0.1875,0.203125 0,0.109375 0.109375,0.109375 0.25,0.109375 0.484375,0 0.5,0.09375 0.5,0.171875 L 1.75,-6.125 0.484375,-1.140625 C 0.453125,-1.03125 0.4375,-0.96875 0.4375,-0.8125 c 0,0.578125 0.4375,0.921875 0.90625,0.921875 0.328125,0 0.578125,-0.203125 0.75,-0.5625 0.171875,-0.375 0.296875,-0.953125 0.296875,-0.96875 0,-0.109375 -0.09375,-0.109375 -0.125,-0.109375 -0.09375,0 -0.109375,0.046875 -0.125,0.1875 C 1.96875,-0.703125 1.78125,-0.109375 1.375,-0.109375 c -0.296875,0 -0.296875,-0.3125 -0.296875,-0.453125 0,-0.25 0.015625,-0.296875 0.0625,-0.484375 z m 0,0"
   id="id-e6e90678-9b57-4948-89d8-9647025b8234" />
      </g></g>
</g><g
       transform="matrix(1.06666,0,0,-1.06666,32.97121,75.918178)"
       ns1:version="1.8.1"
       ns1:texconverter="pdflatex"
       ns1:pdfconverter="inkscape"
       ns1:text="$x_M$"
       ns1:preamble="C:\Users\Julius Fiedler\AppData\Roaming\inkscape\extensions\textext\default_packages.tex"
       ns1:scale="1.0"
       ns1:alignment="middle center"
       ns1:stroke-to-path="0"
       ns1:inkscapeversion="1.2"
       ns1:jacobian_sqrt="1.06666"
       id="g18291"><defs
   id="id-762b7544-4877-4f67-b0a4-f71af18f112e">
    <g
   id="id-d99d64ee-e63d-4c04-8074-e02781b96083">
      <g
   id="id-fb593ba6-420c-4b6d-8ece-153c7a45db42" />
      <g
   id="id-5950cd73-86ba-401a-a554-3485d5c528f1">
        <path
   d="M 3.328125,-3.015625 C 3.390625,-3.265625 3.625,-4.1875 4.3125,-4.1875 c 0.046875,0 0.296875,0 0.5,0.125 C 4.53125,-4 4.34375,-3.765625 4.34375,-3.515625 c 0,0.15625 0.109375,0.34375 0.375,0.34375 0.21875,0 0.53125,-0.171875 0.53125,-0.578125 0,-0.515625 -0.578125,-0.65625 -0.921875,-0.65625 -0.578125,0 -0.921875,0.53125 -1.046875,0.75 -0.25,-0.65625 -0.78125,-0.75 -1.078125,-0.75 -1.03125,0 -1.609375,1.28125 -1.609375,1.53125 0,0.109375 0.109375,0.109375 0.125,0.109375 0.078125,0 0.109375,-0.03125 0.125,-0.109375 0.34375,-1.0625 1,-1.3125 1.34375,-1.3125 0.1875,0 0.53125,0.09375 0.53125,0.671875 0,0.3125 -0.171875,0.96875 -0.53125,2.375 -0.15625,0.609375 -0.515625,1.03125 -0.953125,1.03125 -0.0625,0 -0.28125,0 -0.5,-0.125 0.25,-0.0625 0.46875,-0.265625 0.46875,-0.546875 0,-0.265625 -0.21875,-0.34375 -0.359375,-0.34375 -0.3125,0 -0.546875,0.25 -0.546875,0.578125 0,0.453125 0.484375,0.65625 0.921875,0.65625 0.671875,0 1.03125,-0.703125 1.046875,-0.75 0.125,0.359375 0.484375,0.75 1.078125,0.75 1.03125,0 1.59375,-1.28125 1.59375,-1.53125 0,-0.109375 -0.078125,-0.109375 -0.109375,-0.109375 -0.09375,0 -0.109375,0.046875 -0.140625,0.109375 -0.328125,1.078125 -1,1.3125 -1.3125,1.3125 -0.390625,0 -0.546875,-0.3125 -0.546875,-0.65625 0,-0.21875 0.046875,-0.4375 0.15625,-0.875 z m 0,0"
   id="id-ecfc66b0-f217-4157-b68d-84e9a444c80b" />
      </g>
      <g
   id="id-66590a23-b80e-463c-8f10-278e86133539" />
      <g
   id="id-ada09158-1cea-4c41-a6ed-c32d5353f00f">
        <path
   d="m 7.109375,-4.1875 c 0.0625,-0.265625 0.078125,-0.328125 0.59375,-0.328125 0.15625,0 0.234375,0 0.234375,-0.140625 0,-0.109375 -0.078125,-0.109375 -0.203125,-0.109375 H 6.78125 c -0.203125,0 -0.203125,0.015625 -0.296875,0.140625 l -2.6875,3.984375 -0.6875,-3.9375 c -0.03125,-0.171875 -0.03125,-0.1875 -0.25,-0.1875 H 1.875 c -0.140625,0 -0.234375,0 -0.234375,0.15625 0,0.09375 0.078125,0.09375 0.234375,0.09375 0.109375,0 0.140625,0 0.265625,0.015625 0.140625,0.015625 0.15625,0.03125 0.15625,0.109375 0,0 0,0.046875 -0.03125,0.140625 l -0.875,3.5 c -0.0625,0.234375 -0.171875,0.484375 -0.734375,0.5 -0.046875,0 -0.140625,0 -0.140625,0.15625 0,0 0,0.09375 0.109375,0.09375 0.203125,0 0.5,-0.03125 0.71875,-0.03125 C 1.515625,-0.03125 1.921875,0 2.078125,0 2.125,0 2.21875,0 2.21875,-0.15625 2.21875,-0.25 2.125,-0.25 2.0625,-0.25 1.625,-0.265625 1.625,-0.453125 1.625,-0.546875 c 0,-0.03125 0,-0.0625 0.03125,-0.171875 l 0.921875,-3.703125 0.75,4.234375 C 3.359375,-0.0625 3.359375,0 3.46875,0 3.5625,0 3.625,-0.078125 3.671875,-0.15625 L 6.59375,-4.5 6.609375,-4.484375 5.625,-0.546875 C 5.5625,-0.3125 5.546875,-0.25 5.015625,-0.25 c -0.125,0 -0.21875,0 -0.21875,0.15625 0,0 0,0.09375 0.109375,0.09375 0.140625,0 0.296875,-0.015625 0.4375,-0.015625 0.140625,0 0.296875,-0.015625 0.4375,-0.015625 C 5.984375,-0.03125 6.46875,0 6.671875,0 6.703125,0 6.8125,0 6.8125,-0.15625 6.8125,-0.25 6.734375,-0.25 6.59375,-0.25 c -0.015625,0 -0.140625,0 -0.265625,-0.015625 -0.15625,-0.015625 -0.15625,-0.03125 -0.15625,-0.109375 0,-0.03125 0.015625,-0.109375 0.015625,-0.140625 z m 0,0"
   id="id-f6021d2f-b8e8-46ec-bd91-fd5e3e46cfa9" />
      </g>
    </g>
  </defs>
  <g
   fill="#000000"
   fill-opacity="1"
   id="id-424e595b-9d1b-443d-aaaf-92e87c1062b2"
   transform="translate(-149.009,-130.359)">
    <g
   transform="translate(148.712,134.765)"
   id="g18284"><path
   d="M 3.328125,-3.015625 C 3.390625,-3.265625 3.625,-4.1875 4.3125,-4.1875 c 0.046875,0 0.296875,0 0.5,0.125 C 4.53125,-4 4.34375,-3.765625 4.34375,-3.515625 c 0,0.15625 0.109375,0.34375 0.375,0.34375 0.21875,0 0.53125,-0.171875 0.53125,-0.578125 0,-0.515625 -0.578125,-0.65625 -0.921875,-0.65625 -0.578125,0 -0.921875,0.53125 -1.046875,0.75 -0.25,-0.65625 -0.78125,-0.75 -1.078125,-0.75 -1.03125,0 -1.609375,1.28125 -1.609375,1.53125 0,0.109375 0.109375,0.109375 0.125,0.109375 0.078125,0 0.109375,-0.03125 0.125,-0.109375 0.34375,-1.0625 1,-1.3125 1.34375,-1.3125 0.1875,0 0.53125,0.09375 0.53125,0.671875 0,0.3125 -0.171875,0.96875 -0.53125,2.375 -0.15625,0.609375 -0.515625,1.03125 -0.953125,1.03125 -0.0625,0 -0.28125,0 -0.5,-0.125 0.25,-0.0625 0.46875,-0.265625 0.46875,-0.546875 0,-0.265625 -0.21875,-0.34375 -0.359375,-0.34375 -0.3125,0 -0.546875,0.25 -0.546875,0.578125 0,0.453125 0.484375,0.65625 0.921875,0.65625 0.671875,0 1.03125,-0.703125 1.046875,-0.75 0.125,0.359375 0.484375,0.75 1.078125,0.75 1.03125,0 1.59375,-1.28125 1.59375,-1.53125 0,-0.109375 -0.078125,-0.109375 -0.109375,-0.109375 -0.09375,0 -0.109375,0.046875 -0.140625,0.109375 -0.328125,1.078125 -1,1.3125 -1.3125,1.3125 -0.390625,0 -0.546875,-0.3125 -0.546875,-0.65625 0,-0.21875 0.046875,-0.4375 0.15625,-0.875 z m 0,0"
   id="id-d37f2acf-3e17-42d2-a59a-a75a30b81e9d" />
      </g></g>
  <g
   fill="#000000"
   fill-opacity="1"
   id="id-8c1a248e-e09c-484a-99f0-8a899ea6e2bb"
   transform="translate(-149.009,-130.359)">
    <g
   transform="translate(154.406,136.259)"
   id="g18288"><path
   d="m 7.109375,-4.1875 c 0.0625,-0.265625 0.078125,-0.328125 0.59375,-0.328125 0.15625,0 0.234375,0 0.234375,-0.140625 0,-0.109375 -0.078125,-0.109375 -0.203125,-0.109375 H 6.78125 c -0.203125,0 -0.203125,0.015625 -0.296875,0.140625 l -2.6875,3.984375 -0.6875,-3.9375 c -0.03125,-0.171875 -0.03125,-0.1875 -0.25,-0.1875 H 1.875 c -0.140625,0 -0.234375,0 -0.234375,0.15625 0,0.09375 0.078125,0.09375 0.234375,0.09375 0.109375,0 0.140625,0 0.265625,0.015625 0.140625,0.015625 0.15625,0.03125 0.15625,0.109375 0,0 0,0.046875 -0.03125,0.140625 l -0.875,3.5 c -0.0625,0.234375 -0.171875,0.484375 -0.734375,0.5 -0.046875,0 -0.140625,0 -0.140625,0.15625 0,0 0,0.09375 0.109375,0.09375 0.203125,0 0.5,-0.03125 0.71875,-0.03125 C 1.515625,-0.03125 1.921875,0 2.078125,0 2.125,0 2.21875,0 2.21875,-0.15625 2.21875,-0.25 2.125,-0.25 2.0625,-0.25 1.625,-0.265625 1.625,-0.453125 1.625,-0.546875 c 0,-0.03125 0,-0.0625 0.03125,-0.171875 l 0.921875,-3.703125 0.75,4.234375 C 3.359375,-0.0625 3.359375,0 3.46875,0 3.5625,0 3.625,-0.078125 3.671875,-0.15625 L 6.59375,-4.5 6.609375,-4.484375 5.625,-0.546875 C 5.5625,-0.3125 5.546875,-0.25 5.015625,-0.25 c -0.125,0 -0.21875,0 -0.21875,0.15625 0,0 0,0.09375 0.109375,0.09375 0.140625,0 0.296875,-0.015625 0.4375,-0.015625 0.140625,0 0.296875,-0.015625 0.4375,-0.015625 C 5.984375,-0.03125 6.46875,0 6.671875,0 6.703125,0 6.8125,0 6.8125,-0.15625 6.8125,-0.25 6.734375,-0.25 6.59375,-0.25 c -0.015625,0 -0.140625,0 -0.265625,-0.015625 -0.15625,-0.015625 -0.15625,-0.03125 -0.15625,-0.109375 0,-0.03125 0.015625,-0.109375 0.015625,-0.140625 z m 0,0"
   id="id-dbdae7b3-d902-40dd-851a-dfb29282a1e7" />
      </g></g>
</g><g
       transform="matrix(1.06666,0,0,-1.06666,38.564381,53.571447)"
       ns1:version="1.8.1"
       ns1:texconverter="pdflatex"
       ns1:pdfconverter="inkscape"
       ns1:text="$f$"
       ns1:preamble="C:\Users\Julius Fiedler\AppData\Roaming\inkscape\extensions\textext\default_packages.tex"
       ns1:scale="1.0"
       ns1:alignment="middle center"
       ns1:stroke-to-path="0"
       ns1:inkscapeversion="1.2"
       ns1:jacobian_sqrt="1.06666"
       id="g18831"><defs
   id="id-925de1da-5dc2-40b5-bd7a-aaa1e116d88f">
    <g
   id="id-d6771bd8-d997-4f76-8f32-1ae347f84411">
      <g
   id="id-4fe98a9d-d681-48cc-8dc2-6b8d507dd468" />
      <g
   id="id-58494b13-0c27-4b53-8646-232fc7775868">
        <path
   d="m 3.65625,-3.984375 h 0.859375 c 0.203125,0 0.296875,0 0.296875,-0.203125 0,-0.109375 -0.09375,-0.109375 -0.265625,-0.109375 H 3.71875 L 3.921875,-5.4375 c 0.046875,-0.203125 0.1875,-0.90625 0.25,-1.03125 0.078125,-0.1875 0.25,-0.34375 0.46875,-0.34375 0.03125,0 0.296875,0 0.484375,0.1875 -0.4375,0.03125 -0.546875,0.390625 -0.546875,0.53125 0,0.234375 0.1875,0.359375 0.375,0.359375 C 5.21875,-5.734375 5.5,-5.96875 5.5,-6.34375 c 0,-0.453125 -0.453125,-0.6875 -0.859375,-0.6875 -0.34375,0 -0.96875,0.1875 -1.265625,1.171875 -0.0625,0.203125 -0.09375,0.3125 -0.328125,1.5625 h -0.6875 c -0.203125,0 -0.3125,0 -0.3125,0.1875 0,0.125 0.09375,0.125 0.28125,0.125 h 0.65625 L 2.25,-0.046875 c -0.1875,0.96875 -0.359375,1.875 -0.875,1.875 -0.046875,0 -0.28125,0 -0.484375,-0.1875 C 1.359375,1.609375 1.453125,1.25 1.453125,1.109375 1.453125,0.875 1.265625,0.75 1.078125,0.75 0.8125,0.75 0.53125,0.984375 0.53125,1.359375 c 0,0.4375 0.4375,0.6875 0.84375,0.6875 0.546875,0 0.953125,-0.59375 1.125,-0.96875 0.328125,-0.625 0.546875,-1.828125 0.5625,-1.90625 z m 0,0"
   id="id-df040a11-6db2-4b5e-9023-5eca6bfbe63f" />
      </g>
    </g>
  </defs>
  <g
   fill="#000000"
   fill-opacity="1"
   id="id-736fd610-c098-4fbf-af43-b2250c079ce6"
   transform="translate(-149.243,-127.734)">
    <g
   transform="translate(148.712,134.765)"
   id="g18828"><path
   d="m 3.65625,-3.984375 h 0.859375 c 0.203125,0 0.296875,0 0.296875,-0.203125 0,-0.109375 -0.09375,-0.109375 -0.265625,-0.109375 H 3.71875 L 3.921875,-5.4375 c 0.046875,-0.203125 0.1875,-0.90625 0.25,-1.03125 0.078125,-0.1875 0.25,-0.34375 0.46875,-0.34375 0.03125,0 0.296875,0 0.484375,0.1875 -0.4375,0.03125 -0.546875,0.390625 -0.546875,0.53125 0,0.234375 0.1875,0.359375 0.375,0.359375 C 5.21875,-5.734375 5.5,-5.96875 5.5,-6.34375 c 0,-0.453125 -0.453125,-0.6875 -0.859375,-0.6875 -0.34375,0 -0.96875,0.1875 -1.265625,1.171875 -0.0625,0.203125 -0.09375,0.3125 -0.328125,1.5625 h -0.6875 c -0.203125,0 -0.3125,0 -0.3125,0.1875 0,0.125 0.09375,0.125 0.28125,0.125 h 0.65625 L 2.25,-0.046875 c -0.1875,0.96875 -0.359375,1.875 -0.875,1.875 -0.046875,0 -0.28125,0 -0.484375,-0.1875 C 1.359375,1.609375 1.453125,1.25 1.453125,1.109375 1.453125,0.875 1.265625,0.75 1.078125,0.75 0.8125,0.75 0.53125,0.984375 0.53125,1.359375 c 0,0.4375 0.4375,0.6875 0.84375,0.6875 0.546875,0 0.953125,-0.59375 1.125,-0.96875 0.328125,-0.625 0.546875,-1.828125 0.5625,-1.90625 z m 0,0"
   id="id-7417dfd9-728e-48a5-aed9-7d5b935868ae" />
      </g></g>
</g><g
       transform="matrix(1.06666,0,0,-1.06666,107.203,2.4578295)"
       ns1:version="1.8.1"
       ns1:texconverter="pdflatex"
       ns1:pdfconverter="inkscape"
       ns1:text="$\\varphi$"
       ns1:preamble="C:\Users\Julius Fiedler\AppData\Roaming\inkscape\extensions\textext\default_packages.tex"
       ns1:scale="1.0"
       ns1:alignment="middle center"
       ns1:stroke-to-path="0"
       ns1:inkscapeversion="1.2"
       ns1:jacobian_sqrt="1.06666"
       id="g19377"><defs
   id="id-b6a20846-acf4-451b-b478-a3862387abfe">
    <g
   id="id-24e90a0e-cce7-45ce-9d3b-873600e6bd0f">
      <g
   id="id-9c0f0657-d86a-46a0-82d2-fb9518a592e4" />
      <g
   id="id-2f8de5c9-2280-4bde-ad26-bebb27782651">
        <path
   d="M 1.6875,1.6875 C 1.65625,1.828125 1.640625,1.84375 1.640625,1.890625 c 0,0.21875 0.1875,0.28125 0.296875,0.28125 0.046875,0 0.265625,-0.03125 0.359375,-0.265625 C 2.328125,1.828125 2.375,1.5 2.65625,0.09375 c 0.078125,0 0.15625,0.015625 0.328125,0.015625 1.65625,0 3.1875,-1.5625 3.1875,-3.140625 0,-0.78125 -0.390625,-1.375 -1.140625,-1.375 -1.4375,0 -2.046875,1.9375 -2.640625,3.875 C 1.3125,-0.734375 0.75,-1.28125 0.75,-2 c 0,-0.28125 0.234375,-1.375 0.828125,-2.0625 0.09375,-0.09375 0.09375,-0.109375 0.09375,-0.140625 0,-0.03125 -0.03125,-0.09375 -0.125,-0.09375 -0.28125,0 -1.046875,1.453125 -1.046875,2.40625 0,0.9375 0.65625,1.65625 1.71875,1.90625 z m 1.390625,-2.15625 c -0.09375,0 -0.109375,0 -0.1875,-0.015625 -0.125,0 -0.125,0 -0.125,-0.03125 0,-0.015625 0.171875,-0.9375 0.1875,-1.078125 0.3125,-1.28125 1.09375,-2.234375 1.984375,-2.234375 0.6875,0 0.953125,0.53125 0.953125,1.015625 0,1.125 -1.28125,2.34375 -2.8125,2.34375 z m 0,0"
   id="id-831fa273-bcc5-4559-8719-0451b3f1b0d0" />
      </g>
    </g>
  </defs>
  <g
   fill="#000000"
   fill-opacity="1"
   id="id-a18ed1da-64dc-459d-9db1-2cc04166f43c"
   transform="translate(-149.212,-130.359)">
    <g
   transform="translate(148.712,134.765)"
   id="g19374"><path
   d="M 1.6875,1.6875 C 1.65625,1.828125 1.640625,1.84375 1.640625,1.890625 c 0,0.21875 0.1875,0.28125 0.296875,0.28125 0.046875,0 0.265625,-0.03125 0.359375,-0.265625 C 2.328125,1.828125 2.375,1.5 2.65625,0.09375 c 0.078125,0 0.15625,0.015625 0.328125,0.015625 1.65625,0 3.1875,-1.5625 3.1875,-3.140625 0,-0.78125 -0.390625,-1.375 -1.140625,-1.375 -1.4375,0 -2.046875,1.9375 -2.640625,3.875 C 1.3125,-0.734375 0.75,-1.28125 0.75,-2 c 0,-0.28125 0.234375,-1.375 0.828125,-2.0625 0.09375,-0.09375 0.09375,-0.109375 0.09375,-0.140625 0,-0.03125 -0.03125,-0.09375 -0.125,-0.09375 -0.28125,0 -1.046875,1.453125 -1.046875,2.40625 0,0.9375 0.65625,1.65625 1.71875,1.90625 z m 1.390625,-2.15625 c -0.09375,0 -0.109375,0 -0.1875,-0.015625 -0.125,0 -0.125,0 -0.125,-0.03125 0,-0.015625 0.171875,-0.9375 0.1875,-1.078125 0.3125,-1.28125 1.09375,-2.234375 1.984375,-2.234375 0.6875,0 0.953125,0.53125 0.953125,1.015625 0,1.125 -1.28125,2.34375 -2.8125,2.34375 z m 0,0"
   id="id-0e91a009-9464-401e-9b7f-aefea66b4ee8" />
      </g></g>
</g><g
       transform="matrix(1.06666,0,0,-1.06666,138.6873,-2.3188276)"
       ns1:version="1.8.1"
       ns1:texconverter="pdflatex"
       ns1:pdfconverter="inkscape"
       ns1:text="$m$"
       ns1:preamble="C:\Users\Julius Fiedler\AppData\Roaming\inkscape\extensions\textext\default_packages.tex"
       ns1:scale="1.0"
       ns1:alignment="middle center"
       ns1:stroke-to-path="0"
       ns1:inkscapeversion="1.2"
       ns1:jacobian_sqrt="1.06666"
       id="g19941"><defs
   id="id-65f23e07-7714-470a-abf9-def3b278ab78">
    <g
   id="id-e5d25e3f-52e7-48f8-8190-74c70ed3bbe4">
      <g
   id="id-6b8306f5-e2ae-4895-86f5-6329f4b32025" />
      <g
   id="id-2a5797e2-c220-4a60-86f8-f05c8101242b">
        <path
   d="m 0.875,-0.59375 c -0.03125,0.15625 -0.09375,0.390625 -0.09375,0.4375 0,0.171875 0.140625,0.265625 0.296875,0.265625 0.125,0 0.296875,-0.078125 0.375,-0.28125 0,-0.015625 0.125,-0.484375 0.1875,-0.734375 l 0.21875,-0.890625 C 1.90625,-2.03125 1.96875,-2.25 2.03125,-2.46875 c 0.03125,-0.171875 0.109375,-0.46875 0.125,-0.5 0.140625,-0.3125 0.671875,-1.21875 1.625,-1.21875 0.453125,0 0.53125,0.375 0.53125,0.703125 0,0.25 -0.0625,0.53125 -0.140625,0.828125 L 3.890625,-1.5 3.6875,-0.75 c -0.03125,0.203125 -0.125,0.546875 -0.125,0.59375 0,0.171875 0.140625,0.265625 0.28125,0.265625 0.3125,0 0.375,-0.25 0.453125,-0.5625 0.140625,-0.5625 0.515625,-2.015625 0.59375,-2.40625 0.03125,-0.125 0.5625,-1.328125 1.65625,-1.328125 0.421875,0 0.53125,0.34375 0.53125,0.703125 0,0.5625 -0.421875,1.703125 -0.625,2.234375 -0.078125,0.234375 -0.125,0.34375 -0.125,0.546875 0,0.46875 0.34375,0.8125 0.8125,0.8125 0.9375,0 1.3125,-1.453125 1.3125,-1.53125 0,-0.109375 -0.09375,-0.109375 -0.125,-0.109375 -0.09375,0 -0.09375,0.03125 -0.140625,0.1875 -0.15625,0.53125 -0.46875,1.234375 -1.015625,1.234375 -0.171875,0 -0.25,-0.09375 -0.25,-0.328125 0,-0.25 0.09375,-0.484375 0.1875,-0.703125 0.1875,-0.53125 0.609375,-1.625 0.609375,-2.203125 0,-0.640625 -0.40625,-1.0625 -1.15625,-1.0625 -0.734375,0 -1.25,0.4375 -1.625,0.96875 0,-0.125 -0.03125,-0.46875 -0.3125,-0.703125 -0.25,-0.21875 -0.5625,-0.265625 -0.8125,-0.265625 -0.90625,0 -1.390625,0.640625 -1.5625,0.875 -0.046875,-0.578125 -0.46875,-0.875 -0.921875,-0.875 -0.453125,0 -0.640625,0.390625 -0.734375,0.5625 -0.171875,0.359375 -0.296875,0.9375 -0.296875,0.96875 0,0.109375 0.09375,0.109375 0.109375,0.109375 0.109375,0 0.109375,-0.015625 0.171875,-0.234375 0.171875,-0.703125 0.375,-1.1875 0.734375,-1.1875 0.15625,0 0.296875,0.078125 0.296875,0.453125 0,0.21875 -0.03125,0.328125 -0.15625,0.84375 z m 0,0"
   id="id-29ddae94-889c-412f-80e0-f16d80603bb4" />
      </g>
    </g>
  </defs>
  <g
   fill="#000000"
   fill-opacity="1"
   id="id-e664468f-454b-40f6-8cc2-9cdf2952d81f"
   transform="translate(-149.009,-130.359)">
    <g
   transform="translate(148.712,134.765)"
   id="g20511"><path
   d="m 0.875,-0.59375 c -0.03125,0.15625 -0.09375,0.390625 -0.09375,0.4375 0,0.171875 0.140625,0.265625 0.296875,0.265625 0.125,0 0.296875,-0.078125 0.375,-0.28125 0,-0.015625 0.125,-0.484375 0.1875,-0.734375 l 0.21875,-0.890625 C 1.90625,-2.03125 1.96875,-2.25 2.03125,-2.46875 c 0.03125,-0.171875 0.109375,-0.46875 0.125,-0.5 0.140625,-0.3125 0.671875,-1.21875 1.625,-1.21875 0.453125,0 0.53125,0.375 0.53125,0.703125 0,0.25 -0.0625,0.53125 -0.140625,0.828125 L 3.890625,-1.5 3.6875,-0.75 c -0.03125,0.203125 -0.125,0.546875 -0.125,0.59375 0,0.171875 0.140625,0.265625 0.28125,0.265625 0.3125,0 0.375,-0.25 0.453125,-0.5625 0.140625,-0.5625 0.515625,-2.015625 0.59375,-2.40625 0.03125,-0.125 0.5625,-1.328125 1.65625,-1.328125 0.421875,0 0.53125,0.34375 0.53125,0.703125 0,0.5625 -0.421875,1.703125 -0.625,2.234375 -0.078125,0.234375 -0.125,0.34375 -0.125,0.546875 0,0.46875 0.34375,0.8125 0.8125,0.8125 0.9375,0 1.3125,-1.453125 1.3125,-1.53125 0,-0.109375 -0.09375,-0.109375 -0.125,-0.109375 -0.09375,0 -0.09375,0.03125 -0.140625,0.1875 -0.15625,0.53125 -0.46875,1.234375 -1.015625,1.234375 -0.171875,0 -0.25,-0.09375 -0.25,-0.328125 0,-0.25 0.09375,-0.484375 0.1875,-0.703125 0.1875,-0.53125 0.609375,-1.625 0.609375,-2.203125 0,-0.640625 -0.40625,-1.0625 -1.15625,-1.0625 -0.734375,0 -1.25,0.4375 -1.625,0.96875 0,-0.125 -0.03125,-0.46875 -0.3125,-0.703125 -0.25,-0.21875 -0.5625,-0.265625 -0.8125,-0.265625 -0.90625,0 -1.390625,0.640625 -1.5625,0.875 -0.046875,-0.578125 -0.46875,-0.875 -0.921875,-0.875 -0.453125,0 -0.640625,0.390625 -0.734375,0.5625 -0.171875,0.359375 -0.296875,0.9375 -0.296875,0.96875 0,0.109375 0.09375,0.109375 0.109375,0.109375 0.109375,0 0.109375,-0.015625 0.171875,-0.234375 0.171875,-0.703125 0.375,-1.1875 0.734375,-1.1875 0.15625,0 0.296875,0.078125 0.296875,0.453125 0,0.21875 -0.03125,0.328125 -0.15625,0.84375 z m 0,0"
   id="id-c0b6158e-bce2-4606-96c9-66c32059f8e1" />
      </g></g>
</g><g
       transform="matrix(1.06666,0,0,-1.06666,119.32798,67.919497)"
       ns1:version="1.8.1"
       ns1:texconverter="pdflatex"
       ns1:pdfconverter="inkscape"
       ns1:text="$M$"
       ns1:preamble="C:\Users\Julius Fiedler\AppData\Roaming\inkscape\extensions\textext\default_packages.tex"
       ns1:scale="1.0"
       ns1:alignment="middle center"
       ns1:stroke-to-path="0"
       ns1:inkscapeversion="1.2"
       ns1:jacobian_sqrt="1.06666"
       id="g21095"><defs
   id="id-2ba4faa1-a3fb-466c-bd42-723a14e084db">
    <g
   id="id-ce9f46e6-712a-427a-9e85-722c8bb9d5bc">
      <g
   id="id-57fe307b-8c39-437d-a7af-e64d69524c6f" />
      <g
   id="id-5e94e285-c062-4892-b030-a9204652e8dd">
        <path
   d="M 9.234375,-6.046875 C 9.328125,-6.40625 9.34375,-6.5 10.09375,-6.5 c 0.21875,0 0.3125,0 0.3125,-0.203125 0,-0.109375 -0.09375,-0.109375 -0.265625,-0.109375 h -1.3125 c -0.265625,0 -0.28125,0 -0.390625,0.1875 L 4.796875,-0.9375 4.015625,-6.578125 C 3.984375,-6.8125 3.96875,-6.8125 3.703125,-6.8125 H 2.34375 c -0.1875,0 -0.296875,0 -0.296875,0.1875 0,0.125 0.09375,0.125 0.28125,0.125 0.140625,0 0.3125,0.015625 0.4375,0.015625 0.15625,0.03125 0.21875,0.046875 0.21875,0.171875 0,0.03125 -0.015625,0.0625 -0.046875,0.1875 l -1.265625,5.0625 c -0.09375,0.40625 -0.265625,0.71875 -1.078125,0.75 -0.046875,0 -0.171875,0.015625 -0.171875,0.1875 0,0.09375 0.0625,0.125 0.140625,0.125 0.3125,0 0.65625,-0.03125 1,-0.03125 C 1.890625,-0.03125 2.25,0 2.578125,0 c 0.046875,0 0.1875,0 0.1875,-0.203125 0,-0.109375 -0.109375,-0.109375 -0.1875,-0.109375 -0.5625,0 -0.671875,-0.203125 -0.671875,-0.4375 0,-0.0625 0,-0.125 0.03125,-0.234375 L 3.296875,-6.40625 H 3.3125 l 0.859375,6.171875 C 4.1875,-0.109375 4.203125,0 4.3125,0 4.421875,0 4.484375,-0.109375 4.53125,-0.171875 l 4.03125,-6.3125 h 0.015625 l -1.4375,5.703125 c -0.09375,0.390625 -0.109375,0.46875 -0.90625,0.46875 -0.15625,0 -0.265625,0 -0.265625,0.1875 C 5.96875,0 6.078125,0 6.109375,0 6.390625,0 7.0625,-0.03125 7.34375,-0.03125 7.75,-0.03125 8.1875,0 8.59375,0 8.65625,0 8.78125,0 8.78125,-0.203125 8.78125,-0.3125 8.6875,-0.3125 8.5,-0.3125 c -0.359375,0 -0.640625,0 -0.640625,-0.171875 0,-0.046875 0,-0.0625 0.046875,-0.25 z m 0,0"
   id="id-7780a60c-15f2-4680-a4f7-bac5cb0d09b1" />
      </g>
    </g>
  </defs>
  <g
   fill="#000000"
   fill-opacity="1"
   id="id-638fa85d-7e70-432a-9914-7eb82d97cc71"
   transform="translate(-149.134,-127.953)">
    <g
   transform="translate(148.712,134.765)"
   id="g21092"><path
   d="M 9.234375,-6.046875 C 9.328125,-6.40625 9.34375,-6.5 10.09375,-6.5 c 0.21875,0 0.3125,0 0.3125,-0.203125 0,-0.109375 -0.09375,-0.109375 -0.265625,-0.109375 h -1.3125 c -0.265625,0 -0.28125,0 -0.390625,0.1875 L 4.796875,-0.9375 4.015625,-6.578125 C 3.984375,-6.8125 3.96875,-6.8125 3.703125,-6.8125 H 2.34375 c -0.1875,0 -0.296875,0 -0.296875,0.1875 0,0.125 0.09375,0.125 0.28125,0.125 0.140625,0 0.3125,0.015625 0.4375,0.015625 0.15625,0.03125 0.21875,0.046875 0.21875,0.171875 0,0.03125 -0.015625,0.0625 -0.046875,0.1875 l -1.265625,5.0625 c -0.09375,0.40625 -0.265625,0.71875 -1.078125,0.75 -0.046875,0 -0.171875,0.015625 -0.171875,0.1875 0,0.09375 0.0625,0.125 0.140625,0.125 0.3125,0 0.65625,-0.03125 1,-0.03125 C 1.890625,-0.03125 2.25,0 2.578125,0 c 0.046875,0 0.1875,0 0.1875,-0.203125 0,-0.109375 -0.109375,-0.109375 -0.1875,-0.109375 -0.5625,0 -0.671875,-0.203125 -0.671875,-0.4375 0,-0.0625 0,-0.125 0.03125,-0.234375 L 3.296875,-6.40625 H 3.3125 l 0.859375,6.171875 C 4.1875,-0.109375 4.203125,0 4.3125,0 4.421875,0 4.484375,-0.109375 4.53125,-0.171875 l 4.03125,-6.3125 h 0.015625 l -1.4375,5.703125 c -0.09375,0.390625 -0.109375,0.46875 -0.90625,0.46875 -0.15625,0 -0.265625,0 -0.265625,0.1875 C 5.96875,0 6.078125,0 6.109375,0 6.390625,0 7.0625,-0.03125 7.34375,-0.03125 7.75,-0.03125 8.1875,0 8.59375,0 8.65625,0 8.78125,0 8.78125,-0.203125 8.78125,-0.3125 8.6875,-0.3125 8.5,-0.3125 c -0.359375,0 -0.640625,0 -0.640625,-0.171875 0,-0.046875 0,-0.0625 0.046875,-0.25 z m 0,0"
   id="id-38cc64ee-6e23-4ae6-97f4-08e698102213" />
      </g></g>
</g></g><g
     inkscape:groupmode="layer"
     id="layer1"
     inkscape:label="versteckk"
     style="display:none"
     transform="translate(-14.394787,-63.025278)"><path
       transform="matrix(1.25,0,0,-1.25,0,160)"
       id="path3435"
       style="fill:#ffffff;fill-opacity:1;fill-rule:nonzero;stroke:#000000;stroke-width:0.80000001;stroke-linecap:butt;stroke-linejoin:miter;stroke-miterlimit:4;stroke-opacity:1;stroke-dasharray:none"
       d="m 0.398,49.565 190.567,0 -190.567,0 z"
       inkscape:connector-curvature="0" /><path
       transform="matrix(1.25,0,0,-1.25,0,160)"
       id="path3437"
       style="fill:none;stroke:#000000;stroke-width:0.40000001;stroke-linecap:butt;stroke-linejoin:miter;stroke-miterlimit:4;stroke-opacity:1;stroke-dasharray:none"
       d="m 6.594,49.573 -5.699,-5.7"
       inkscape:connector-curvature="0" /><path
       transform="matrix(1.25,0,0,-1.25,0,160)"
       id="path3439"
       style="fill:none;stroke:#000000;stroke-width:0.40000001;stroke-linecap:butt;stroke-linejoin:miter;stroke-miterlimit:4;stroke-opacity:1;stroke-dasharray:none"
       d="m 11.395,49.573 -5.7,-5.7"
       inkscape:connector-curvature="0" /><path
       transform="matrix(1.25,0,0,-1.25,0,160)"
       id="path3441"
       style="fill:none;stroke:#000000;stroke-width:0.40000001;stroke-linecap:butt;stroke-linejoin:miter;stroke-miterlimit:4;stroke-opacity:1;stroke-dasharray:none"
       d="m 16.195,49.573 -5.703,-5.7"
       inkscape:connector-curvature="0" /><path
       transform="matrix(1.25,0,0,-1.25,0,160)"
       id="path3443"
       style="fill:none;stroke:#000000;stroke-width:0.40000001;stroke-linecap:butt;stroke-linejoin:miter;stroke-miterlimit:4;stroke-opacity:1;stroke-dasharray:none"
       d="m 20.992,49.573 -5.699,-5.7"
       inkscape:connector-curvature="0" /><path
       transform="matrix(1.25,0,0,-1.25,0,160)"
       id="path3445"
       style="fill:none;stroke:#000000;stroke-width:0.40000001;stroke-linecap:butt;stroke-linejoin:miter;stroke-miterlimit:4;stroke-opacity:1;stroke-dasharray:none"
       d="m 25.793,49.573 -5.699,-5.7"
       inkscape:connector-curvature="0" /><path
       transform="matrix(1.25,0,0,-1.25,0,160)"
       id="path3447"
       style="fill:none;stroke:#000000;stroke-width:0.40000001;stroke-linecap:butt;stroke-linejoin:miter;stroke-miterlimit:4;stroke-opacity:1;stroke-dasharray:none"
       d="m 30.594,49.573 -5.699,-5.7"
       inkscape:connector-curvature="0" /><path
       transform="matrix(1.25,0,0,-1.25,0,160)"
       id="path3449"
       style="fill:none;stroke:#000000;stroke-width:0.40000001;stroke-linecap:butt;stroke-linejoin:miter;stroke-miterlimit:4;stroke-opacity:1;stroke-dasharray:none"
       d="m 35.395,49.573 -5.7,-5.7"
       inkscape:connector-curvature="0" /><path
       transform="matrix(1.25,0,0,-1.25,0,160)"
       id="path3451"
       style="fill:none;stroke:#000000;stroke-width:0.40000001;stroke-linecap:butt;stroke-linejoin:miter;stroke-miterlimit:4;stroke-opacity:1;stroke-dasharray:none"
       d="m 40.195,49.573 -5.703,-5.7"
       inkscape:connector-curvature="0" /><path
       transform="matrix(1.25,0,0,-1.25,0,160)"
       id="path3453"
       style="fill:none;stroke:#000000;stroke-width:0.40000001;stroke-linecap:butt;stroke-linejoin:miter;stroke-miterlimit:4;stroke-opacity:1;stroke-dasharray:none"
       d="m 44.992,49.573 -5.699,-5.7"
       inkscape:connector-curvature="0" /><path
       transform="matrix(1.25,0,0,-1.25,0,160)"
       id="path3455"
       style="fill:none;stroke:#000000;stroke-width:0.40000001;stroke-linecap:butt;stroke-linejoin:miter;stroke-miterlimit:4;stroke-opacity:1;stroke-dasharray:none"
       d="m 49.793,49.573 -5.699,-5.7"
       inkscape:connector-curvature="0" /><path
       transform="matrix(1.25,0,0,-1.25,0,160)"
       id="path3457"
       style="fill:none;stroke:#000000;stroke-width:0.40000001;stroke-linecap:butt;stroke-linejoin:miter;stroke-miterlimit:4;stroke-opacity:1;stroke-dasharray:none"
       d="m 54.594,49.573 -5.699,-5.7"
       inkscape:connector-curvature="0" /><path
       transform="matrix(1.25,0,0,-1.25,0,160)"
       id="path3459"
       style="fill:none;stroke:#000000;stroke-width:0.40000001;stroke-linecap:butt;stroke-linejoin:miter;stroke-miterlimit:4;stroke-opacity:1;stroke-dasharray:none"
       d="m 59.395,49.573 -5.7,-5.7"
       inkscape:connector-curvature="0" /><path
       transform="matrix(1.25,0,0,-1.25,0,160)"
       id="path3461"
       style="fill:none;stroke:#000000;stroke-width:0.40000001;stroke-linecap:butt;stroke-linejoin:miter;stroke-miterlimit:4;stroke-opacity:1;stroke-dasharray:none"
       d="m 64.195,49.573 -5.703,-5.7"
       inkscape:connector-curvature="0" /><path
       transform="matrix(1.25,0,0,-1.25,0,160)"
       id="path3463"
       style="fill:none;stroke:#000000;stroke-width:0.40000001;stroke-linecap:butt;stroke-linejoin:miter;stroke-miterlimit:4;stroke-opacity:1;stroke-dasharray:none"
       d="m 68.992,49.573 -5.699,-5.7"
       inkscape:connector-curvature="0" /><path
       transform="matrix(1.25,0,0,-1.25,0,160)"
       id="path3465"
       style="fill:none;stroke:#000000;stroke-width:0.40000001;stroke-linecap:butt;stroke-linejoin:miter;stroke-miterlimit:4;stroke-opacity:1;stroke-dasharray:none"
       d="m 73.793,49.573 -5.699,-5.7"
       inkscape:connector-curvature="0" /><path
       transform="matrix(1.25,0,0,-1.25,0,160)"
       id="path3467"
       style="fill:none;stroke:#000000;stroke-width:0.40000001;stroke-linecap:butt;stroke-linejoin:miter;stroke-miterlimit:4;stroke-opacity:1;stroke-dasharray:none"
       d="m 78.594,49.573 -5.699,-5.7"
       inkscape:connector-curvature="0" /><path
       transform="matrix(1.25,0,0,-1.25,0,160)"
       id="path3469"
       style="fill:none;stroke:#000000;stroke-width:0.40000001;stroke-linecap:butt;stroke-linejoin:miter;stroke-miterlimit:4;stroke-opacity:1;stroke-dasharray:none"
       d="m 83.395,49.573 -5.7,-5.7"
       inkscape:connector-curvature="0" /><path
       transform="matrix(1.25,0,0,-1.25,0,160)"
       id="path3471"
       style="fill:none;stroke:#000000;stroke-width:0.40000001;stroke-linecap:butt;stroke-linejoin:miter;stroke-miterlimit:4;stroke-opacity:1;stroke-dasharray:none"
       d="m 88.195,49.573 -5.703,-5.7"
       inkscape:connector-curvature="0" /><path
       transform="matrix(1.25,0,0,-1.25,0,160)"
       id="path3473"
       style="fill:none;stroke:#000000;stroke-width:0.40000001;stroke-linecap:butt;stroke-linejoin:miter;stroke-miterlimit:4;stroke-opacity:1;stroke-dasharray:none"
       d="m 92.992,49.573 -5.699,-5.7"
       inkscape:connector-curvature="0" /><path
       transform="matrix(1.25,0,0,-1.25,0,160)"
       id="path3475"
       style="fill:none;stroke:#000000;stroke-width:0.40000001;stroke-linecap:butt;stroke-linejoin:miter;stroke-miterlimit:4;stroke-opacity:1;stroke-dasharray:none"
       d="m 97.793,49.573 -5.699,-5.7"
       inkscape:connector-curvature="0" /><path
       transform="matrix(1.25,0,0,-1.25,0,160)"
       id="path3477"
       style="fill:none;stroke:#000000;stroke-width:0.40000001;stroke-linecap:butt;stroke-linejoin:miter;stroke-miterlimit:4;stroke-opacity:1;stroke-dasharray:none"
       d="m 102.594,49.573 -5.699,-5.7"
       inkscape:connector-curvature="0" /><path
       transform="matrix(1.25,0,0,-1.25,0,160)"
       id="path3479"
       style="fill:none;stroke:#000000;stroke-width:0.40000001;stroke-linecap:butt;stroke-linejoin:miter;stroke-miterlimit:4;stroke-opacity:1;stroke-dasharray:none"
       d="m 107.395,49.573 -5.7,-5.7"
       inkscape:connector-curvature="0" /><path
       transform="matrix(1.25,0,0,-1.25,0,160)"
       id="path3481"
       style="fill:none;stroke:#000000;stroke-width:0.40000001;stroke-linecap:butt;stroke-linejoin:miter;stroke-miterlimit:4;stroke-opacity:1;stroke-dasharray:none"
       d="m 112.195,49.573 -5.703,-5.7"
       inkscape:connector-curvature="0" /><path
       transform="matrix(1.25,0,0,-1.25,0,160)"
       id="path3483"
       style="fill:none;stroke:#000000;stroke-width:0.40000001;stroke-linecap:butt;stroke-linejoin:miter;stroke-miterlimit:4;stroke-opacity:1;stroke-dasharray:none"
       d="m 116.992,49.573 -5.699,-5.7"
       inkscape:connector-curvature="0" /><path
       transform="matrix(1.25,0,0,-1.25,0,160)"
       id="path3485"
       style="fill:none;stroke:#000000;stroke-width:0.40000001;stroke-linecap:butt;stroke-linejoin:miter;stroke-miterlimit:4;stroke-opacity:1;stroke-dasharray:none"
       d="m 121.793,49.573 -5.699,-5.7"
       inkscape:connector-curvature="0" /><path
       transform="matrix(1.25,0,0,-1.25,0,160)"
       id="path3487"
       style="fill:none;stroke:#000000;stroke-width:0.40000001;stroke-linecap:butt;stroke-linejoin:miter;stroke-miterlimit:4;stroke-opacity:1;stroke-dasharray:none"
       d="m 126.594,49.573 -5.699,-5.7"
       inkscape:connector-curvature="0" /><path
       transform="matrix(1.25,0,0,-1.25,0,160)"
       id="path3489"
       style="fill:none;stroke:#000000;stroke-width:0.40000001;stroke-linecap:butt;stroke-linejoin:miter;stroke-miterlimit:4;stroke-opacity:1;stroke-dasharray:none"
       d="m 131.395,49.573 -5.7,-5.7"
       inkscape:connector-curvature="0" /><path
       transform="matrix(1.25,0,0,-1.25,0,160)"
       id="path3491"
       style="fill:none;stroke:#000000;stroke-width:0.40000001;stroke-linecap:butt;stroke-linejoin:miter;stroke-miterlimit:4;stroke-opacity:1;stroke-dasharray:none"
       d="m 136.195,49.573 -5.703,-5.7"
       inkscape:connector-curvature="0" /><path
       transform="matrix(1.25,0,0,-1.25,0,160)"
       id="path3493"
       style="fill:none;stroke:#000000;stroke-width:0.40000001;stroke-linecap:butt;stroke-linejoin:miter;stroke-miterlimit:4;stroke-opacity:1;stroke-dasharray:none"
       d="m 140.992,49.573 -5.699,-5.7"
       inkscape:connector-curvature="0" /><path
       transform="matrix(1.25,0,0,-1.25,0,160)"
       id="path3495"
       style="fill:none;stroke:#000000;stroke-width:0.40000001;stroke-linecap:butt;stroke-linejoin:miter;stroke-miterlimit:4;stroke-opacity:1;stroke-dasharray:none"
       d="m 145.793,49.573 -5.699,-5.7"
       inkscape:connector-curvature="0" /><path
       transform="matrix(1.25,0,0,-1.25,0,160)"
       id="path3497"
       style="fill:none;stroke:#000000;stroke-width:0.40000001;stroke-linecap:butt;stroke-linejoin:miter;stroke-miterlimit:4;stroke-opacity:1;stroke-dasharray:none"
       d="m 150.594,49.573 -5.699,-5.7"
       inkscape:connector-curvature="0" /><path
       transform="matrix(1.25,0,0,-1.25,0,160)"
       id="path3499"
       style="fill:none;stroke:#000000;stroke-width:0.40000001;stroke-linecap:butt;stroke-linejoin:miter;stroke-miterlimit:4;stroke-opacity:1;stroke-dasharray:none"
       d="m 155.395,49.573 -5.7,-5.7"
       inkscape:connector-curvature="0" /><path
       transform="matrix(1.25,0,0,-1.25,0,160)"
       id="path3501"
       style="fill:none;stroke:#000000;stroke-width:0.40000001;stroke-linecap:butt;stroke-linejoin:miter;stroke-miterlimit:4;stroke-opacity:1;stroke-dasharray:none"
       d="m 160.195,49.573 -5.703,-5.7"
       inkscape:connector-curvature="0" /><path
       transform="matrix(1.25,0,0,-1.25,0,160)"
       id="path3503"
       style="fill:none;stroke:#000000;stroke-width:0.40000001;stroke-linecap:butt;stroke-linejoin:miter;stroke-miterlimit:4;stroke-opacity:1;stroke-dasharray:none"
       d="m 164.992,49.573 -5.699,-5.7"
       inkscape:connector-curvature="0" /><path
       transform="matrix(1.25,0,0,-1.25,0,160)"
       id="path3505"
       style="fill:none;stroke:#000000;stroke-width:0.40000001;stroke-linecap:butt;stroke-linejoin:miter;stroke-miterlimit:4;stroke-opacity:1;stroke-dasharray:none"
       d="m 169.793,49.573 -5.699,-5.7"
       inkscape:connector-curvature="0" /><path
       transform="matrix(1.25,0,0,-1.25,0,160)"
       id="path3507"
       style="fill:none;stroke:#000000;stroke-width:0.40000001;stroke-linecap:butt;stroke-linejoin:miter;stroke-miterlimit:4;stroke-opacity:1;stroke-dasharray:none"
       d="m 174.594,49.573 -5.699,-5.7"
       inkscape:connector-curvature="0" /><path
       transform="matrix(1.25,0,0,-1.25,0,160)"
       id="path3509"
       style="fill:none;stroke:#000000;stroke-width:0.40000001;stroke-linecap:butt;stroke-linejoin:miter;stroke-miterlimit:4;stroke-opacity:1;stroke-dasharray:none"
       d="m 179.395,49.573 -5.7,-5.7"
       inkscape:connector-curvature="0" /><path
       transform="matrix(1.25,0,0,-1.25,0,160)"
       id="path3511"
       style="fill:none;stroke:#000000;stroke-width:0.40000001;stroke-linecap:butt;stroke-linejoin:miter;stroke-miterlimit:4;stroke-opacity:1;stroke-dasharray:none"
       d="m 184.195,49.573 -5.703,-5.7"
       inkscape:connector-curvature="0" /><path
       transform="matrix(1.25,0,0,-1.25,0,160)"
       id="path3513"
       style="fill:none;stroke:#000000;stroke-width:0.40000001;stroke-linecap:butt;stroke-linejoin:miter;stroke-miterlimit:4;stroke-opacity:1;stroke-dasharray:none"
       d="m 188.992,49.573 -5.699,-5.7"
       inkscape:connector-curvature="0" /><g
       id="g4021"
       style="fill:#000000;fill-opacity:1"
       transform="matrix(1.125,0,0,1.125,-227.06544,-188.49875)">
  <use
   id="use4023"
   y="134.765"
   x="259.608"
   xlink:href="#textext-1af510b9-3"
   width="240"
   height="160" />
</g><g
       id="g4029"
       style="fill:#000000;fill-opacity:1"
       transform="matrix(1.125,0,0,1.125,-296.17214,-181.98448)">
  <use
   id="use4031"
   y="134.765"
   x="282.42334"
   xlink:href="#textext-1af510b9-5"
   width="240"
   height="160" />
</g><path
       transform="matrix(1.25,0,0,-1.25,0,159.99999)"
       id="path3515"
       style="fill:#000000;fill-opacity:1;fill-rule:nonzero;stroke:none"
       d="m 33.645,168.426 c -0.043,-0.227 -0.133,-0.563 -0.133,-0.633 0,-0.246 0.203,-0.379 0.426,-0.379 0.179,0 0.429,0.109 0.542,0.402 0,0.024 0.18,0.7 0.27,1.059 0.09,0.426 0.199,0.855 0.312,1.281 0.071,0.34 0.161,0.653 0.25,0.969 0.043,0.246 0.157,0.676 0.18,0.719 0.203,0.449 0.965,1.758 2.34,1.758 0.652,0 0.766,-0.543 0.766,-1.016 0,-0.359 -0.09,-0.766 -0.203,-1.191 -0.18,-0.719 -0.25,-1.012 -0.407,-1.665 -0.156,-0.519 -0.156,-0.609 -0.293,-1.082 -0.043,-0.293 -0.179,-0.785 -0.179,-0.855 0,-0.246 0.203,-0.379 0.406,-0.379 0.449,0 0.539,0.359 0.652,0.809 0.203,0.808 0.742,2.902 0.856,3.465 0.043,0.179 0.808,1.914 2.382,1.914 0.61,0 0.766,-0.497 0.766,-1.016 0,-0.809 -0.605,-2.453 -0.898,-3.215 -0.114,-0.34 -0.18,-0.496 -0.18,-0.789 0,-0.676 0.492,-1.168 1.168,-1.168 1.352,0 1.891,2.09 1.891,2.203 0,0.156 -0.137,0.156 -0.18,0.156 -0.137,0 -0.137,-0.043 -0.203,-0.269 -0.227,-0.766 -0.676,-1.777 -1.461,-1.777 -0.25,0 -0.36,0.136 -0.36,0.472 0,0.36 0.133,0.699 0.27,1.012 0.27,0.766 0.875,2.34 0.875,3.172 0,0.926 -0.582,1.531 -1.664,1.531 -1.059,0 -1.801,-0.629 -2.34,-1.394 0,0.179 -0.047,0.675 -0.449,1.011 -0.359,0.317 -0.813,0.383 -1.172,0.383 -1.305,0 -2,-0.922 -2.25,-1.258 -0.066,0.832 -0.676,1.258 -1.328,1.258 -0.652,0 -0.922,-0.562 -1.055,-0.809 -0.25,-0.519 -0.43,-1.351 -0.43,-1.394 0,-0.16 0.137,-0.16 0.161,-0.16 0.156,0 0.156,0.023 0.246,0.34 0.246,1.011 0.539,1.711 1.058,1.711 0.223,0 0.426,-0.114 0.426,-0.657 0,-0.312 -0.043,-0.468 -0.223,-1.215 l -0.835,-3.304 z"
       inkscape:connector-curvature="0" /><path
       transform="matrix(1.25,0,0,-1.25,0,159.99999)"
       id="path3517"
       style="fill:#000000;fill-opacity:1;fill-rule:nonzero;stroke:none"
       d="m 50.156,168.613 c 0,1.102 -0.133,1.914 -0.586,2.61 -0.312,0.449 -0.945,0.855 -1.73,0.855 -2.34,0 -2.34,-2.746 -2.34,-3.465 0,-0.718 0,-3.398 2.34,-3.398 2.316,0 2.316,2.68 2.316,3.398 z m -2.316,-3.105 c -0.473,0 -1.082,0.269 -1.281,1.082 -0.137,0.582 -0.137,1.414 -0.137,2.16 0,0.742 0,1.504 0.137,2.047 0.222,0.785 0.851,1.012 1.281,1.012 0.539,0 1.058,-0.336 1.238,-0.922 0.156,-0.539 0.18,-1.262 0.18,-2.137 0,-0.746 0,-1.488 -0.137,-2.117 -0.203,-0.922 -0.875,-1.125 -1.281,-1.125 z"
       inkscape:connector-curvature="0" /><g
       transform="matrix(1.5,0,0,1.5,-181.20199,-536.1205)"
       id="g3325"><path
         id="path3194"
         d="m 220.6874,440.478 1.79,-1.72 c 0.08,-0.08 0.61,-0.58 1.42,-0.59 v -0.31 c -0.26,0.03 -0.58,0.03 -0.85,0.03 -0.36,0 -0.93,0 -1.26,-0.03 v 0.31 c 0.39,0.01 0.45,0.24 0.45,0.33 0,0.16 -0.1,0.25 -0.17,0.32 l -3.12,2.97 v -3.15 c 0,-0.36 0.02,-0.47 0.79,-0.47 h 0.24 v -0.31 c -0.35,0.03 -1.09,0.03 -1.47,0.03 -0.38,0 -1.12,0 -1.47,-0.03 v 0.31 h 0.24 c 0.76,0 0.79,0.11 0.79,0.47 v 5.23 c 0,0.36 -0.03,0.47 -0.79,0.47 h -0.24 v 0.31 c 0.35,-0.04 1.08,-0.04 1.46,-0.04 0.38,0 1.13,0 1.48,0.04 v -0.31 h -0.24 c -0.77,0 -0.79,-0.11 -0.79,-0.47 v -1.74 l 1.15,-1.09 1.81,2.66 c 0.05,0.09 0.14,0.22 0.14,0.34 0,0.3 -0.38,0.3 -0.58,0.3 v 0.31 c 0.35,-0.04 1.04,-0.04 1.42,-0.04 0.35,0 0.73,0.01 1.15,0.04 v -0.31 c -0.54,0 -0.75,-0.04 -1.05,-0.48 z"
         inkscape:connector-curvature="0"
         style="font-style:normal;font-variant:normal;font-weight:normal;font-stretch:normal;letter-spacing:normal;word-spacing:normal;text-anchor:start;fill:#000000;fill-opacity:1;fill-rule:evenodd;stroke:#000000;stroke-width:0;stroke-linecap:butt;stroke-linejoin:miter;stroke-miterlimit:10.43299961;stroke-opacity:1;stroke-dasharray:none;stroke-dashoffset:0" /><path
         id="path3196"
         d="m 226.7874,441.718 0,-0.01 0,-0.01 0,-0.01 0,-0.01 0,0 0,-0.01 0,-0.01 0,-0.01 0,0 0,-0.01 0,-0.01 0,0 0,-0.01 0,0 0,-0.01 0,0 0,-0.01 0,0 -0.01,-0.01 0,-0.01 0,-0.01 0,0 -0.01,-0.01 0,-0.01 -0.01,0 0,-0.01 -0.01,0 -0.01,0 0,-0.01 -0.01,0 -0.01,0 -0.01,0 0,0 -0.01,0 -0.01,0 0,-0.01 -0.01,0 0,0 -0.01,0 -0.01,0 0,0 -0.01,0 -0.01,0 0,0 -0.01,0 -0.01,0 -0.01,0 -0.01,0 -0.01,0 0,0 c -0.45,0.44 -1.08,0.45 -1.37,0.45 v 0.25 c 0.17,0 0.63,0 1.01,-0.2 v 3.55 c 0,0.23 0,0.32 -0.7,0.32 h -0.26 v 0.25 c 0.12,-0.01 0.98,-0.03 1.24,-0.03 0.21,0 1.09,0.02 1.25,0.03 v -0.25 h -0.27 c -0.7,0 -0.7,-0.09 -0.7,-0.32 z"
         inkscape:connector-curvature="0"
         style="font-style:normal;font-variant:normal;font-weight:normal;font-stretch:normal;letter-spacing:normal;word-spacing:normal;text-anchor:start;fill:#000000;fill-opacity:1;fill-rule:evenodd;stroke:#000000;stroke-width:0;stroke-linecap:butt;stroke-linejoin:miter;stroke-miterlimit:10.43299961;stroke-opacity:1;stroke-dasharray:none;stroke-dashoffset:0" /></g><g
       transform="matrix(1.5,0,0,1.5,-309.76246,-659.80426)"
       id="g3329"><path
         id="path3198"
         d="m 236.2274,440.478 1.79,-1.72 c 0.08,-0.08 0.61,-0.58 1.41,-0.59 v -0.31 c -0.25,0.03 -0.57,0.03 -0.84,0.03 -0.36,0 -0.93,0 -1.27,-0.03 v 0.31 c 0.4,0.01 0.46,0.24 0.46,0.33 0,0.16 -0.1,0.25 -0.18,0.32 l -3.11,2.97 v -3.15 c 0,-0.36 0.02,-0.47 0.79,-0.47 h 0.23 v -0.31 c -0.34,0.03 -1.08,0.03 -1.46,0.03 -0.38,0 -1.12,0 -1.47,-0.03 v 0.31 h 0.24 c 0.76,0 0.78,0.11 0.78,0.47 v 5.23 c 0,0.36 -0.02,0.47 -0.78,0.47 h -0.24 v 0.31 c 0.35,-0.04 1.08,-0.04 1.46,-0.04 0.38,0 1.13,0 1.47,0.04 v -0.31 h -0.23 c -0.77,0 -0.79,-0.11 -0.79,-0.47 v -1.74 l 1.15,-1.09 1.81,2.66 c 0.05,0.09 0.14,0.22 0.14,0.34 0,0.3 -0.38,0.3 -0.58,0.3 v 0.31 c 0.34,-0.04 1.04,-0.04 1.42,-0.04 0.35,0 0.73,0.01 1.14,0.04 v -0.31 c -0.53,0 -0.74,-0.04 -1.04,-0.48 z"
         inkscape:connector-curvature="0"
         style="font-style:normal;font-variant:normal;font-weight:normal;font-stretch:normal;letter-spacing:normal;word-spacing:normal;text-anchor:start;fill:#000000;fill-opacity:1;fill-rule:evenodd;stroke:#000000;stroke-width:0;stroke-linecap:butt;stroke-linejoin:miter;stroke-miterlimit:10.43299961;stroke-opacity:1;stroke-dasharray:none;stroke-dashoffset:0" /><path
         id="path3200"
         d="m 243.5174,444.868 h -0.24 c -0.02,0.16 -0.09,0.57 -0.18,0.64 -0.06,0.04 -0.59,0.04 -0.69,0.04 h -1.28 c 0.73,-0.65 0.97,-0.84 1.39,-1.17 0.52,-0.41 1,-0.84 1,-1.5 0,-0.84 -0.74,-1.36 -1.63,-1.36 -0.87,0 -1.45,0.61 -1.45,1.25 0,0.35 0.3,0.39 0.37,0.39 0.17,0 0.37,-0.12 0.37,-0.37 0,-0.13 -0.05,-0.37 -0.41,-0.37 0.21,-0.5 0.69,-0.65 1.01,-0.65 0.7,0 1.06,0.54 1.06,1.11 0,0.6 -0.43,1.08 -0.65,1.33 l -1.68,1.66 c -0.07,0.06 -0.07,0.07 -0.07,0.27 h 2.87 z"
         inkscape:connector-curvature="0"
         style="font-style:normal;font-variant:normal;font-weight:normal;font-stretch:normal;letter-spacing:normal;word-spacing:normal;text-anchor:start;fill:#000000;fill-opacity:1;fill-rule:evenodd;stroke:#000000;stroke-width:0;stroke-linecap:butt;stroke-linejoin:miter;stroke-miterlimit:10.43299961;stroke-opacity:1;stroke-dasharray:none;stroke-dashoffset:0" /></g></g></svg>
